<?xml version="1.0" encoding="UTF-8"?>
<svg viewBox="165.12 389.38 1205.76 193.54" version="1.1" xmlns="http://www.w3.org/2000/svg" width="1206" height="194">

<path d="M0 0 C396.66 0 793.32 0 1202 0 C1202 62.7 1202 125.4 1202 190 C805.34 190 408.68 190 0 190 C0 127.3 0 64.6 0 0 Z " fill="#ADA89F" transform="translate(167,391)"/>
<path d="M0 0 C380.82 0 761.64 0 1154 0 C1154 49.17 1154 98.34 1154 149 C963.92 149 773.84 149 578 149 C578 110.06 578 71.12 578 31 C387.59 31 197.18 31 1 31 C1 68.62 1 106.24 1 145 C0.67 145 0.34 145 0 145 C0 97.15 0 49.3 0 0 Z " fill="#B0AAA1" transform="translate(191,414)"/>
<path d="M0 0 C396.66 0 793.32 0 1202 0 C1202 62.7 1202 125.4 1202 190 C805.34 190 408.68 190 0 190 C0 127.3 0 64.6 0 0 Z M23 22 C23 71.83 23 121.66 23 173 C404.15 173 785.3 173 1178 173 C1178 123.17 1178 73.34 1178 22 C796.85 22 415.7 22 23 22 Z " fill="#7D4718" transform="translate(167,391)"/>
<path d="M0 0 C393.69 0 787.38 0 1193 0 C1190.03 3.465 1190.03 3.465 1187 7 C1186.45120214 7.72067876 1185.90240427 8.44135752 1185.33697617 9.18387503 C1181.70898626 13.24962226 1178.34557041 14.40471775 1172.92544776 14.79166467 C1168.56794927 14.94915133 1164.21877248 14.92101774 1159.85934448 14.88088799 C1157.8673102 14.8881909 1155.87528521 14.89856039 1153.88328099 14.91171855 C1148.38931173 14.93905423 1142.89620001 14.92262835 1137.40224424 14.89927288 C1131.43292642 14.88155897 1125.46374284 14.90431816 1119.49444389 14.92197621 C1109.02590252 14.94729893 1098.55757942 14.94670218 1088.08904266 14.92864609 C1076.85605054 14.90938944 1065.6232064 14.90532308 1054.39020538 14.91980743 C1053.32611014 14.92116375 1053.32611014 14.92116375 1052.24051801 14.92254746 C1049.3512713 14.92628034 1046.46202475 14.93012129 1043.57277836 14.93409939 C1016.65869979 14.97113033 989.74472044 14.97363322 962.83062744 14.95406723 C961.63421771 14.95319788 961.63421771 14.95319788 960.41363809 14.95231096 C959.61475784 14.95173046 958.81587759 14.95114995 957.99278885 14.95055185 C933.66605868 14.93289795 909.33936951 14.92832592 885.01263428 14.93671036 C883.38435475 14.93725271 881.75607521 14.93779281 880.12779568 14.93833065 C873.58460943 14.94050387 867.04142321 14.94273453 860.49823701 14.94504899 C842.20670062 14.95146842 823.9151641 14.95546236 805.62362671 14.95755196 C804.37413983 14.95769524 804.37413983 14.95769524 803.0994108 14.95784141 C776.55199556 14.96070686 750.0045946 14.95281554 723.45718384 14.9376049 C722.59599299 14.93711316 721.73480215 14.93662142 720.84751461 14.93611477 C706.86184896 14.92809989 692.87618362 14.91956377 678.8905183 14.91098356 C623.41981116 14.87698852 567.94922226 14.87856637 512.47851562 14.91259766 C498.49994926 14.92114581 484.52138286 14.92962309 470.54281616 14.9376049 C469.68213464 14.93809804 468.82145312 14.93859118 467.93469034 14.93909926 C441.41524944 14.95418985 414.89581836 14.96059298 388.37637329 14.95755196 C387.54399176 14.95745687 386.71161022 14.95736178 385.854005 14.9572638 C367.58287644 14.95507657 349.31174891 14.95064132 331.04062138 14.94417844 C324.50324324 14.94187439 317.96586505 14.93968283 311.42848686 14.93752346 C309.80211946 14.93698174 308.17575207 14.93643063 306.54938467 14.93587008 C282.22835977 14.92751079 257.90738106 14.93463807 233.58636191 14.95231096 C232.38995218 14.95318032 232.38995218 14.95318032 231.16937256 14.95406723 C229.97516456 14.95493539 229.97516456 14.95493539 228.75683115 14.9558211 C201.92126487 14.97511665 175.08581769 14.9680509 148.25026846 14.93110202 C145.37011064 14.92723545 142.48995269 14.92347853 139.60979462 14.91980743 C138.90294274 14.91889599 138.19609086 14.91798454 137.46781923 14.91704547 C126.26382504 14.903225 115.05997864 14.91286589 103.85599777 14.93219047 C92.84595856 14.95068288 81.83612476 14.94366109 70.8261045 14.91109186 C64.93356056 14.89437334 59.0415785 14.88888389 53.14905143 14.91393374 C47.79280417 14.93647257 42.43761945 14.92704923 37.08145031 14.89166912 C35.15163868 14.88459431 33.22173995 14.88934686 31.2919971 14.90711068 C15.13354677 15.04534828 15.13354677 15.04534828 10.05370903 10.655882 C9.01250116 9.45710542 7.99347818 8.23862029 7 7 C5.68677642 5.85158953 4.35369354 4.72541655 3 3.625 C2.01 2.75875 1.02 1.8925 0 1 C0 0.67 0 0.34 0 0 Z " fill="#D08430" transform="translate(171,395)"/>
<path d="M0 0 C10.48304772 0.19611791 20.96360399 0.20137479 31.44805908 0.15353394 C31.44805908 0.81353394 31.44805908 1.47353394 31.44805908 2.15353394 C32.93305908 1.16353394 32.93305908 1.16353394 34.44805908 0.15353394 C37.54313564 -0.08976841 37.54313564 -0.08976841 41.44084167 -0.08024597 C42.51725626 -0.0817509 42.51725626 -0.0817509 43.61541659 -0.08328623 C46.03101269 -0.08424173 48.44632037 -0.0708708 50.86187744 -0.05764771 C52.59479688 -0.05544564 54.32771766 -0.05414083 56.06063843 -0.05366516 C59.81568498 -0.05072012 63.5706452 -0.04142572 67.32566643 -0.02736092 C73.37065869 -0.0048582 79.41561969 0.003044 85.46064758 0.00914001 C96.25107542 0.02187376 107.04144961 0.04685745 117.83184814 0.07449341 C135.76838738 0.12035702 153.7049506 0.1538114 171.64153337 0.17677736 C173.73886909 0.17951059 175.8362046 0.18240686 177.93353987 0.18546629 C224.44331491 0.25269564 270.94306528 -0.21573975 317.44805908 -0.84646606 C317.44805908 8.72353394 317.44805908 18.29353394 317.44805908 28.15353394 C127.69805908 28.15353394 -62.05194092 28.15353394 -257.55194092 28.15353394 C-257.55194092 18.91353394 -257.55194092 9.67353394 -257.55194092 0.15353394 C-171.70209562 -0.80856978 -85.84552394 -1.70155902 0 0 Z " fill="#E1DCD5" transform="translate(448.55194091796875,415.8464660644531)"/>
<path d="M0 0 C0.33 0 0.66 0 1 0 C1 9.9 1 19.8 1 30 C-188.42 30 -377.84 30 -573 30 C-573 20.76 -573 11.52 -573 2 C-570.13712248 2.00092179 -567.27424496 2.00184359 -564.32461357 2.00279331 C-514.216013 2.01881257 -464.10741223 2.03354977 -413.99880981 2.04234314 C-412.82175869 2.04255023 -412.82175869 2.04255023 -411.62092876 2.04276149 C-394.56635513 2.04575456 -377.51178149 2.04852472 -360.45720779 2.05106533 C-352.09337941 2.05231264 -343.72955103 2.0536092 -335.36572266 2.05493164 C-334.53343106 2.0550624 -333.70113946 2.05519316 -332.84362691 2.05532788 C-305.87747304 2.05958753 -278.91132128 2.06709758 -251.94516868 2.07629722 C-224.22880121 2.0857356 -196.5124349 2.09188679 -168.79606584 2.09391499 C-164.8793243 2.09420314 -160.96258276 2.09452877 -157.04584122 2.09487724 C-155.88956015 2.09497838 -155.88956015 2.09497838 -154.70991987 2.09508156 C-142.31242845 2.09626225 -129.91494064 2.10089755 -117.51745069 2.10683203 C-105.04705832 2.11272743 -92.5766695 2.11496594 -80.10627578 2.11350138 C-73.3522984 2.1128088 -66.59833216 2.11384428 -59.84435654 2.11920547 C-53.65703775 2.12408096 -47.46973656 2.12431141 -41.28241695 2.12089889 C-39.04799657 2.12047728 -36.81357507 2.12173792 -34.57915686 2.12488318 C-17.75407598 2.30439729 -17.75407598 2.30439729 -1 1 C-0.67 0.67 -0.34 0.34 0 0 Z " fill="#E0DBD4" transform="translate(1343,414)"/>
<path d="M0 0 C396.66 0 793.32 0 1202 0 C1202 62.7 1202 125.4 1202 190 C805.34 190 408.68 190 0 190 C0 127.3 0 64.6 0 0 Z M3 3 C3 63.72 3 124.44 3 187 C591.555 186.505 591.555 186.505 1192 186 C1192 185.34 1192 184.68 1192 184 C1193.98 184 1195.96 184 1198 184 C1198.9886265 145.02024513 1199.11303632 106.03988731 1199.12283063 67.0499323 C1199.12412385 62.23265676 1199.12789161 57.41538733 1199.13256836 52.59811401 C1199.13871167 46.01219727 1199.13864626 39.42629917 1199.13431931 32.84037971 C1199.13331855 30.36760534 1199.1339192 27.89482977 1199.13615799 25.4220562 C1199.13869229 22.01425736 1199.13492593 18.60652441 1199.12939453 15.19873047 C1199.13243465 13.6816331 1199.13243465 13.6816331 1199.13553619 12.13388729 C1199.13271385 11.21667684 1199.12989151 10.29946638 1199.12698364 9.35446167 C1199.12660662 8.55668745 1199.12622959 7.75891323 1199.12584114 6.93696404 C1199.12051585 4.91746032 1199.12051585 4.91746032 1198 3 C803.65 3 409.3 3 3 3 Z " fill="#402A19" transform="translate(167,391)"/>
<path d="M0 0 C394.35 0 788.7 0 1195 0 C1196.17515104 2.35030208 1196.12574552 3.73463343 1196.12698364 6.35446167 C1196.12980598 7.27167212 1196.13262833 8.18888258 1196.13553619 9.13388729 C1196.13249607 10.65098466 1196.13249607 10.65098466 1196.12939453 12.19873047 C1196.13112419 13.26434236 1196.13285385 14.32995424 1196.13463593 15.4278574 C1196.13901425 18.99098287 1196.13603847 22.55406136 1196.1328125 26.1171875 C1196.13382625 28.62207555 1196.13516459 31.12696348 1196.1368103 33.6318512 C1196.13923345 39.6417829 1196.13639967 45.65169051 1196.13056505 51.66161817 C1196.12592469 56.47600153 1196.12352383 61.29038149 1196.12231445 66.10476685 C1196.11081094 104.40984902 1195.97125815 142.70504757 1195 181 C1191.19462611 180.32717033 1188.927084 179.53076033 1185.875 177.125 C1185.21242188 176.61195313 1184.54984375 176.09890625 1183.8671875 175.5703125 C1183.25101563 175.05210937 1182.63484375 174.53390625 1182 174 C1181.47540695 173.56279633 1180.9508139 173.12559265 1180.4103241 172.67514038 C1178.61075796 170.53767006 1178.60713767 169.39856695 1178.56762695 166.62744141 C1178.54784286 165.72314896 1178.52805878 164.81885651 1178.50767517 163.88716125 C1178.50127518 162.88541367 1178.49487518 161.88366608 1178.48828125 160.8515625 C1178.47023941 159.77565353 1178.45219757 158.69974457 1178.43360901 157.5912323 C1178.37760409 153.9358557 1178.34452791 150.28066046 1178.3125 146.625 C1178.27998906 144.03344057 1178.24693305 141.44188793 1178.21337891 138.8503418 C1177.91358262 113.90253012 1177.89949298 88.95049527 1177.87795639 64.00121307 C1177.87499111 60.80291093 1177.87082402 57.60461174 1177.86660767 54.40631104 C1177.86073248 49.33317867 1177.86076223 44.26007821 1177.86549187 39.18694496 C1177.86661742 37.29187356 1177.86609905 35.39680042 1177.86389351 33.50172997 C1177.86135877 30.90061789 1177.86509171 28.29959201 1177.87060547 25.69848633 C1177.86857778 24.92660288 1177.86655008 24.15471943 1177.86446095 23.35944557 C1177.8857053 18.1142947 1177.8857053 18.1142947 1179 17 C795.54 17 412.08 17 17 17 C17 57.59 17 98.18 17 140 C16.67 150.23 16.34 160.46 16 171 C15.01 171.33 14.02 171.66 13 172 C13 172.66 13 173.32 13 174 C11.390625 175.69140625 11.390625 175.69140625 9.25 177.5625 C8.55390625 178.18253906 7.8578125 178.80257812 7.140625 179.44140625 C5 181 5 181 1 182 C-0.23785617 121.34504746 0 60.66758241 0 0 Z M1 1 C3.72740003 4.40925003 5.85382276 6.93632202 9.0625 9.6875 C9.73410156 10.26886719 10.40570313 10.85023438 11.09765625 11.44921875 C15.43630649 14.98606505 18.4193464 15.28815864 23.82008821 15.26335567 C24.63049664 15.26752685 25.44090507 15.27169802 26.27587133 15.27599559 C29.02019144 15.28764 31.76431538 15.28493363 34.5086565 15.28240871 C36.49303692 15.28782767 38.47741513 15.29411737 40.46179029 15.301204 C45.9576076 15.31823545 51.45337608 15.3226719 56.94921663 15.32515008 C62.91220501 15.32997448 68.87516389 15.34620726 74.83813447 15.36096102 C85.30347847 15.38519561 95.76881639 15.40184149 106.23418045 15.41336823 C117.46762977 15.42574705 128.70106062 15.44232923 139.93449593 15.46402931 C140.64314641 15.46539294 141.3517969 15.46675657 142.08192165 15.46816152 C144.9680108 15.47371991 147.85409993 15.47929409 150.74018901 15.48489214 C188.19443892 15.55738423 225.64871144 15.60338287 263.1030072 15.6442999 C268.77985722 15.65050956 274.45670706 15.65686239 280.13355681 15.66330472 C342.82645314 15.73441605 405.5193558 15.7969368 468.21228079 15.83618204 C482.18832515 15.84496172 496.16436932 15.85404467 510.1404134 15.86325862 C512.7723847 15.86499067 515.40435602 15.86670879 518.03632733 15.86842689 C573.49864135 15.90482219 628.96076166 15.98649983 684.4229769 16.09575461 C724.89814749 16.1754653 765.37327609 16.24895279 805.84852123 16.276124 C806.68091715 16.27668572 807.51331308 16.27724743 808.37093312 16.27782617 C826.64427582 16.29002475 844.91761848 16.29860075 863.19096447 16.30377608 C870.54353585 16.30591366 877.89610704 16.30852655 885.24867821 16.3112812 C886.05337659 16.31156968 886.85807497 16.31185815 887.68715816 16.31215536 C913.60961512 16.32166865 939.53180086 16.37149829 965.45415729 16.44219604 C991.56681834 16.51319358 1017.67918647 16.54322727 1043.79194052 16.51674941 C1047.40132416 16.51309714 1051.01070808 16.50990413 1054.62009239 16.50698662 C1055.32762519 16.50639752 1056.03515798 16.50580842 1056.76413116 16.50520147 C1067.96237714 16.49707308 1079.16004039 16.53262595 1090.35814203 16.58644862 C1101.3727034 16.63848458 1112.38663491 16.64298973 1123.40128379 16.60046191 C1129.29266407 16.57906289 1135.18206381 16.57829413 1141.07325558 16.63483893 C1146.43588421 16.68590281 1151.79496015 16.67683804 1157.1575032 16.62030234 C1159.08263009 16.61045088 1161.00802499 16.62228301 1162.93283145 16.65876218 C1173.5317293 16.8466465 1180.38096046 16.03299832 1188.24330682 8.46217448 C1192.02875701 5.11839331 1192.02875701 5.11839331 1194 1 C800.31 1 406.62 1 1 1 Z " fill="#A66D2E" transform="translate(170,394)"/>
<path d="M0 0 C384.12 0 768.24 0 1164 0 C1163.67 0.66 1163.34 1.32 1163 2 C1162.89398647 4.0268963 1162.85333238 6.05731061 1162.84178162 8.08694458 C1162.8319928 9.38547363 1162.82220398 10.68400269 1162.81211853 12.0218811 C1162.80621393 13.46917688 1162.80040351 14.91647304 1162.79467773 16.36376953 C1162.78510199 17.88128935 1162.77509209 19.39880649 1162.76467896 20.9163208 C1162.73759089 25.04415276 1162.71660249 29.17199619 1162.69667697 33.29986811 C1162.67484144 37.61073059 1162.64744087 41.92155753 1162.62062073 46.23239136 C1162.57066087 54.39922739 1162.52573428 62.56608311 1162.48259836 70.73295772 C1162.43325409 80.02910217 1162.37832556 89.32521097 1162.32291877 98.62132096 C1162.22243559 115.49890975 1162.1271161 132.37652208 1162.03629881 149.25416553 C1162.02949216 150.5190106 1162.02268551 151.78385568 1162.0156726 153.08702939 C1162.01050064 154.04830969 1162.00532868 155.00958999 1162 156 C1131.04291106 156.75886905 1100.10510875 157.15365568 1069.13906758 157.1572054 C1063.40137348 157.15897797 1057.6636859 157.1664855 1051.92599583 157.17318195 C1041.92639044 157.18410245 1031.92678745 157.19155617 1021.92717743 157.19658089 C1011.2270554 157.20196947 1000.52693889 157.20947103 989.82682037 157.21950912 C988.80371357 157.22046707 988.80371357 157.22046707 987.75993794 157.22144438 C984.28054533 157.22471181 980.80115276 157.22801323 977.32176019 157.23132664 C952.29661172 157.25508892 927.27146149 157.2742686 902.24630737 157.29092598 C877.50112704 157.30741076 852.75594951 157.32591342 828.01077271 157.34705925 C827.23925198 157.34771764 826.46773126 157.34837604 825.67283113 157.34905439 C818.6250769 157.3550698 811.57732269 157.36110969 804.52956851 157.36717889 C787.01796798 157.38225878 769.5063672 157.39703236 751.99476624 157.41159725 C751.19776181 157.41226039 750.40075739 157.41292353 749.57960132 157.41360676 C710.91049124 157.44575417 672.24137866 157.47437032 633.57226562 157.50268555 C620.17114255 157.51250041 606.7700195 157.52233099 593.36889648 157.53222656 C592.53763653 157.53284036 591.70637657 157.53345416 590.84992691 157.53408656 C552.12918064 157.5626993 513.40843651 157.59383813 474.68769272 157.62561907 C472.17060432 157.62768499 469.65351591 157.62974982 467.13642751 157.63181442 C450.45405491 157.64549965 433.77168235 157.65922821 417.08930981 157.67298577 C383.90206152 157.70035412 350.71481302 157.72746806 317.52756437 157.75440695 C315.9474826 157.75568954 314.36740082 157.75697231 312.78731904 157.75825526 C241.75274577 157.81593037 170.71817033 157.87064767 99.68359375 157.92407227 C99.01915211 157.92457201 98.35471047 157.92507175 97.67013423 157.92558663 C64.44675629 157.95057235 31.22337822 157.9753887 -2 158 C-1.67 157.01 -1.34 156.02 -1 155 C0.66583486 103.35911939 0 51.66774192 0 0 Z M4 3 C4 52.83 4 102.66 4 154 C385.15 154 766.3 154 1159 154 C1159 104.17 1159 54.34 1159 3 C777.85 3 396.7 3 4 3 Z " fill="#3D2714" transform="translate(186,410)"/>
<path d="M0 0 C393.69 0 787.38 0 1193 0 C1191.35 1.98 1189.7 3.96 1188 6 C1187.34 6 1186.68 6 1186 6 C1186 5.34 1186 4.68 1186 4 C1178.75513449 3.97473261 1171.51028026 3.9571682 1164.26538086 3.94506836 C1161.79857967 3.94002644 1159.33178148 3.93319309 1156.86499023 3.92456055 C1153.32795471 3.91248875 1149.79095855 3.90677044 1146.25390625 3.90234375 C1145.14350479 3.89718246 1144.03310333 3.89202118 1142.88905334 3.88670349 C1141.86807053 3.88662796 1140.84708771 3.88655243 1139.79516602 3.88647461 C1138.89137711 3.884254 1137.9875882 3.88203339 1137.05641174 3.87974548 C1135.00746419 3.77099538 1135.00746419 3.77099538 1134 5 C1132.29541262 5.09728977 1130.58675499 5.12371503 1128.87939358 5.12304783 C1127.76271594 5.12503888 1126.64603831 5.12702993 1125.49552196 5.12908131 C1123.63223604 5.12471205 1123.63223604 5.12471205 1121.73130798 5.12025452 C1120.4237168 5.12110894 1119.11612562 5.12196337 1117.76891047 5.12284368 C1114.12265526 5.12509111 1110.47642916 5.12106399 1106.83017766 5.11606562 C1102.90445985 5.11176484 1098.9787438 5.11320728 1095.05302429 5.1139679 C1088.24587042 5.11449337 1081.4387261 5.11134414 1074.63157463 5.10573006 C1064.78946132 5.0976182 1054.94735265 5.09500016 1045.10523636 5.09374207 C1029.13875847 5.09155105 1013.17228567 5.08488963 997.20581055 5.07543945 C981.69181341 5.06626661 966.17781766 5.05918516 950.66381836 5.05493164 C949.7082425 5.05466892 948.75266664 5.05440619 947.76813393 5.05413551 C942.97450177 5.05283051 938.1808696 5.0515668 933.38723743 5.05032361 C893.59148805 5.03994945 853.79574436 5.02232979 814 5 C814 4.67 814 4.34 814 4 C812.35425434 3.97311849 810.70838587 3.95365877 809.0625 3.9375 C807.68771484 3.92009766 807.68771484 3.92009766 806.28515625 3.90234375 C804.03406673 3.74050951 804.03406673 3.74050951 803 5 C801.42003685 5.09744564 799.8356937 5.12447298 798.2527284 5.1241985 C797.21698731 5.12644579 796.18124621 5.12869308 795.11411902 5.13100848 C793.38295995 5.12706796 793.38295995 5.12706796 791.61682796 5.12304783 C790.39835669 5.12420167 789.17988542 5.12535552 787.92449078 5.12654433 C784.51182883 5.1287505 781.0992222 5.12642179 777.68656546 5.12226619 C773.98546441 5.11884893 770.28436652 5.12119954 766.58326489 5.12284368 C760.08654736 5.12492339 753.58983896 5.12326351 747.09312248 5.11920547 C737.43263553 5.11318795 727.77215438 5.11286804 718.1116659 5.11374746 C701.86377871 5.1150636 685.61589558 5.11171148 669.36800957 5.10573006 C653.27263812 5.09981993 637.17726836 5.09596551 621.08189583 5.09487724 C619.5826649 5.09477413 619.5826649 5.09477413 618.05314647 5.09466894 C612.97758305 5.09433062 607.90201962 5.09402923 602.8264562 5.09374207 C566.8443453 5.09163975 530.86223661 5.08489708 494.88012695 5.07543945 C459.91658541 5.06626013 424.95304446 5.05917402 389.98950195 5.05493164 C388.91241917 5.05480011 387.83533638 5.05466859 386.72561472 5.05453308 C375.909443 5.0532146 365.09327128 5.05193878 354.27709955 5.05069422 C332.24186699 5.04815777 310.20663448 5.04533652 288.17140198 5.04234314 C286.65157164 5.0421372 286.65157164 5.0421372 285.10103766 5.04192711 C217.40069086 5.03272115 149.70034528 5.01687534 82 5 C82.66 4.34 83.32 3.68 84 3 C83.00663635 3.00444122 82.01327271 3.00888245 80.98980713 3.01345825 C71.63159958 3.05398892 62.27340982 3.083977 52.91513443 3.10362434 C48.10386753 3.11406476 43.29267145 3.12822872 38.48144531 3.15087891 C33.83897963 3.17259801 29.19658209 3.18456668 24.55406952 3.18975449 C22.78223345 3.19345191 21.01040114 3.20067198 19.23859406 3.21146011 C16.75826434 3.22596264 14.27821681 3.22797846 11.79785156 3.22705078 C10.69733459 3.23783661 10.69733459 3.23783661 9.57458496 3.24884033 C5.88430849 3.23388996 3.13495606 3.04310385 0 1 C0 0.67 0 0.34 0 0 Z " fill="#DC9440" transform="translate(171,395)"/>
<path d="M0 0 C396.66 0 793.32 0 1202 0 C1202 62.7 1202 125.4 1202 190 C1201.67 190 1201.34 190 1201 190 C1200.67 181.75 1200.34 173.5 1200 165 C1199.67 171.93 1199.34 178.86 1199 186 C1197.35 185.67 1195.7 185.34 1194 185 C1195.32 184.67 1196.64 184.34 1198 184 C1198 124.27 1198 64.54 1198 3 C803.65 3 409.3 3 3 3 C3 37.32 3 71.64 3 107 C2.67 107 2.34 107 2 107 C1.67 133.73 1.34 160.46 1 188 C0.67 188 0.34 188 0 188 C0 125.96 0 63.92 0 0 Z " fill="#5B4734" transform="translate(167,391)"/>
<path d="M0 0 C380.16 0 760.32 0 1152 0 C1151.67 0.66 1151.34 1.32 1151 2 C1135.46635909 2.80372015 1119.98276564 3.14284636 1104.4299469 3.12025452 C1102.1497059 3.12069185 1099.86946496 3.12156972 1097.58922428 3.12284368 C1091.39312035 3.12505684 1085.19703403 3.12111147 1079.00093234 3.11606562 C1072.98409434 3.11216332 1066.96725809 3.11302873 1060.95041933 3.11374746 C1048.66055821 3.11505417 1036.37070251 3.11174751 1024.08084297 3.10573006 C1011.92792293 3.09979503 999.77500515 3.09596049 987.62208366 3.09487724 C986.86394664 3.0948085 986.10580962 3.09473976 985.32469874 3.09466894 C981.47386018 3.09433057 977.62302162 3.0940292 973.77218305 3.09374207 C946.5594649 3.0916466 919.3467497 3.0849231 892.1340332 3.07543945 C865.71183284 3.06624199 839.28963329 3.05916478 812.86743164 3.05493164 C812.0517141 3.05480011 811.23599657 3.05466859 810.39556031 3.05453308 C802.20312842 3.05321446 794.01069651 3.05193866 785.8182646 3.05069422 C769.13217453 3.04815861 752.44608451 3.04533736 735.75999451 3.04234314 C734.99294425 3.04220585 734.22589399 3.04206856 733.43559978 3.04192711 C682.29039859 3.0327402 631.14519918 3.01681932 580 3 C579.67 11.91 579.34 20.82 579 30 C576.282642 30.905786 574.72953746 31.12480521 571.94048768 31.1241985 C570.69405253 31.12756944 570.69405253 31.12756944 569.42243686 31.13100848 C568.05051048 31.12706796 568.05051048 31.12706796 566.65086842 31.12304783 C565.67659201 31.12420167 564.70231561 31.12535552 563.69851568 31.12654433 C560.40233128 31.12921149 557.10619478 31.12468798 553.81001282 31.12025452 C551.43566332 31.1206902 549.06131388 31.12156505 546.68696469 31.12284368 C541.50847968 31.12461928 536.330005 31.12326843 531.15152168 31.11920547 C523.45125628 31.11318072 515.75099815 31.11286871 508.05073082 31.11374746 C495.09886975 31.11506271 482.14701378 31.11171484 469.19515419 31.10573006 C456.36700732 31.0998176 443.53886257 31.09596503 430.71071434 31.09487724 C429.91377116 31.0948085 429.11682798 31.09473976 428.29573501 31.09466894 C424.24863606 31.09433062 420.20153711 31.09402923 416.15443816 31.09374207 C387.47201657 31.09164039 358.78959776 31.08489952 330.10717773 31.07543945 C302.2386883 31.06625843 274.37019963 31.05917315 246.50170898 31.05493164 C245.64302141 31.05480011 244.78433384 31.05466859 243.89962544 31.05453308 C235.27650935 31.05321458 226.65339325 31.05193876 218.03027715 31.05069422 C200.46323384 31.04815785 182.89619058 31.0453366 165.32914734 31.04234314 C164.52140308 31.04220585 163.71365882 31.04206856 162.88143746 31.04192711 C138.11792351 31.03770314 113.35441003 31.03227141 88.59089661 31.02565002 C87.88768862 31.02546247 87.18448064 31.02527491 86.45996332 31.02508167 C57.97330867 31.01746548 29.48665438 31.00857217 1 31 C1 68.62 1 106.24 1 145 C0.67 145 0.34 145 0 145 C0 107.05 0 69.1 0 30 C189.75 30 379.5 30 575 30 C575 20.43 575 10.86 575 1 C573.515 1.495 573.515 1.495 572 2 C569.66588649 2.11906536 567.32854039 2.17714544 564.99156189 2.20532227 C563.91275888 2.22016741 563.91275888 2.22016741 562.81216186 2.23531246 C560.39165421 2.26720296 557.97113026 2.29192193 555.55053711 2.31640625 C553.81437146 2.3371555 552.07820932 2.35819973 550.34205055 2.3795166 C545.59146619 2.43604109 540.84083206 2.48527865 536.0901463 2.53242874 C533.0786018 2.56261268 530.06707871 2.59445902 527.05555534 2.62667847 C479.62243502 3.12866597 432.19077603 3.08278909 384.75572968 3.00520325 C369.7498891 2.9807518 354.74405343 2.95826578 339.73819679 2.94658184 C333.7745485 2.9416428 327.81093495 2.93186615 321.84730065 2.91815186 C318.20126537 2.91072722 314.55523485 2.90738583 310.90919304 2.9051857 C309.22202648 2.90330937 307.53486084 2.89969988 305.84770203 2.89425278 C303.55453791 2.88707447 301.26145036 2.88599714 298.96827698 2.88647461 C297.68681069 2.884254 296.40534441 2.88203339 295.08504581 2.87974548 C291.96151268 2.85780891 291.96151268 2.85780891 289 4 C289 3.34 289 2.68 289 2 C288.44123956 2.03256362 287.88247911 2.06512724 287.30678654 2.09867764 C272.62991481 2.92215129 258.07327939 2.99706316 243.3814106 2.65147209 C213.07001886 1.96002188 182.75938913 1.89656933 152.44140625 1.90234375 C150.77736165 1.90254037 150.77736165 1.90254037 149.07969999 1.90274096 C135.40303728 1.90467667 121.72638736 1.91450611 108.04973161 1.92797434 C96.23242793 1.93939222 84.4151235 1.94470969 72.59781563 1.94967639 C48.39853763 1.95997557 24.19926946 1.97742543 0 2 C0 1.34 0 0.68 0 0 Z " fill="#C7C2B9" transform="translate(191,414)"/>
<path d="M0 0 C2 2 2 2 2.24888897 3.93696404 C2.24807182 5.13362536 2.24807182 5.13362536 2.24723816 6.35446167 C2.25143517 7.27167212 2.25563217 8.18888258 2.25995636 9.13388729 C2.25433434 10.14528554 2.24871231 11.15668379 2.24291992 12.19873047 C2.24479561 13.26434236 2.2466713 14.32995424 2.24860382 15.4278574 C2.25228039 18.99103864 2.24148022 22.55402359 2.23046875 26.1171875 C2.22961284 28.62207525 2.22952987 31.12696338 2.23017883 33.6318512 C2.22914478 39.64181273 2.21838063 45.65168325 2.20258409 51.66161817 C2.19013922 56.47600046 2.18222801 61.29037128 2.17724609 66.10476685 C2.13625194 104.40865691 1.97122263 142.70644833 1 181 C-2.80537389 180.32717033 -5.072916 179.53076033 -8.125 177.125 C-8.78757812 176.61195313 -9.45015625 176.09890625 -10.1328125 175.5703125 C-10.74898437 175.05210937 -11.36515625 174.53390625 -12 174 C-12.78688957 173.34419449 -12.78688957 173.34419449 -13.5896759 172.67514038 C-15.38924204 170.53767006 -15.39286233 169.39856695 -15.43237305 166.62744141 C-15.45214706 165.72312881 -15.47192108 164.81881622 -15.49229431 163.88710022 C-15.49870438 162.88537277 -15.50511444 161.88364532 -15.51171875 160.8515625 C-15.52985123 159.77583481 -15.5479837 158.70010712 -15.56666565 157.59178162 C-15.62290511 153.93621678 -15.65600645 150.28085694 -15.6875 146.625 C-15.71865013 144.03051244 -15.75023829 141.4360301 -15.78222656 138.84155273 C-15.87868853 130.45873093 -15.93241015 122.07574602 -15.98311615 113.69254303 C-16.00084101 110.86587987 -16.02039911 108.03923379 -16.04034424 105.21258545 C-16.12836891 92.61082103 -16.1920486 80.00918426 -16.22915649 67.40716553 C-16.24178351 63.17408608 -16.26055151 58.94110028 -16.28427124 54.70806885 C-16.3116828 49.66082686 -16.32373575 44.61376807 -16.32426262 39.56645393 C-16.32681683 37.68583838 -16.33449968 35.80522209 -16.3475666 33.92465019 C-16.36457727 31.33375397 -16.36286482 28.74351707 -16.35644531 26.15258789 C-16.36566356 25.39508554 -16.3748818 24.6375832 -16.38437939 23.85712624 C-16.34213961 18.53182285 -15.16147742 15.34240218 -11.57373047 11.4543457 C-11.09307129 11.03241943 -10.61241211 10.61049316 -10.1171875 10.17578125 C-9.58996094 9.70462891 -9.06273437 9.23347656 -8.51953125 8.74804688 C-7.97683594 8.27431641 -7.43414063 7.80058594 -6.875 7.3125 C-2.92886078 4.07458311 -2.92886078 4.07458311 0 0 Z " fill="#90511B" transform="translate(1364,394)"/>
<path d="M0 0 C0.33 0 0.66 0 1 0 C1 49.17 1 98.34 1 149 C-189.08 149 -379.16 149 -575 149 C-575 110.06 -575 71.12 -575 31 C-575.66 30.67 -576.32 30.34 -577 30 C-576.01 30 -575.02 30 -574 30 C-574 68.28 -574 106.56 -574 146 C-567.5797509 146.36893239 -567.5797509 146.36893239 -564 145 C-563.505 144.01 -563.505 144.01 -563 143 C-562.34 143 -561.68 143 -561 143 C-561 143.66 -561 144.32 -561 145 C-560.32670465 145 -559.65340931 145 -558.95971107 145 C-427.84808013 145 -427.84808013 145 -422.42041016 145.03173828 C-416.60197624 145.06389153 -410.78354742 145.0869441 -404.96505165 145.10362434 C-401.44312175 145.11406921 -397.92128842 145.12824986 -394.39941406 145.15087891 C-390.3417875 145.17678145 -386.28426235 145.18647384 -382.2265625 145.1953125 C-380.96292877 145.20563507 -379.69929504 145.21595764 -378.39736938 145.22659302 C-377.22290253 145.22674408 -376.04843567 145.22689514 -374.83837891 145.22705078 C-373.8051651 145.231492 -372.77195129 145.23593323 -371.70742798 145.24050903 C-368.95081733 144.99563095 -367.40657737 144.27673973 -365 143 C-363.05273438 143.8605957 -363.05273438 143.8605957 -361 145 C-358.65153261 145.28869795 -358.65153261 145.28869795 -356.15625 145.23046875 C-355.23972656 145.22853516 -354.32320312 145.22660156 -353.37890625 145.22460938 C-352.42886719 145.21236328 -351.47882813 145.20011719 -350.5 145.1875 C-349.54996094 145.18685547 -348.59992188 145.18621094 -347.62109375 145.18554688 C-342.81812897 145.26048753 -342.81812897 145.26048753 -338.12158203 144.46264648 C-335.07579675 143.79846201 -332.31148358 144.16437579 -329.2109375 144.4296875 C-321.34329606 145.03946007 -313.51702214 145.15186189 -305.625 145.125 C-304.94277374 145.12444611 -304.26054749 145.12389221 -303.55764771 145.12332153 C-292.98447986 145.11334525 -282.43853756 144.85309317 -271.87939453 144.26806641 C-267.8157759 144.05865891 -264.02179834 143.88590339 -260.00390625 144.59765625 C-256.82468046 145.35996685 -256.82468046 145.35996685 -254 143 C-254 143.66 -254 144.32 -254 145 C-230.57 145 -207.14 145 -183 145 C-183 144.34 -183 143.68 -183 143 C-182.34 143 -181.68 143 -181 143 C-181 143.66 -181 144.32 -181 145 C-167.90639726 145.02339233 -154.81279966 145.04104982 -141.71918011 145.05181217 C-135.63626544 145.05698313 -129.5533653 145.0639726 -123.47045898 145.07543945 C-84.85557241 148.5330124 -84.85557241 148.5330124 -48 143 C-48 143.66 -48 144.32 -48 145 C-46.83150513 144.99214478 -46.83150513 144.99214478 -45.6394043 144.98413086 C-41.9887783 144.96289222 -38.33816535 144.95019481 -34.6875 144.9375 C-33.46353516 144.92912109 -32.23957031 144.92074219 -30.97851562 144.91210938 C-20.58119464 144.88524291 -10.4320735 145.4509435 0 146 C0 97.82 0 49.64 0 0 Z " fill="#989288" transform="translate(1344,414)"/>
<path d="M0 0 C393.69 0 787.38 0 1193 0 C1192.34 0.99 1191.68 1.98 1191 3 C1188.30645008 3.29968826 1185.84178065 3.40019732 1183.14512694 3.37489682 C1181.90561022 3.3810209 1181.90561022 3.3810209 1180.64105275 3.3872687 C1177.8362889 3.39739357 1175.03201304 3.38590068 1172.22725868 3.37473011 C1170.20179299 3.37755278 1168.17632878 3.38169118 1166.15086818 3.38703534 C1160.53633643 3.3979721 1154.92196045 3.39001032 1149.30743419 3.3792013 C1143.21770064 3.37074074 1137.12798932 3.37956889 1131.038257 3.38626546 C1120.34908839 3.39559368 1109.65997239 3.39377422 1098.97080803 3.38453293 C1087.49667957 3.3746659 1076.02257683 3.37129034 1064.54844475 3.37590981 C1063.46296189 3.37634036 1063.46296189 3.37634036 1062.35555008 3.37677962 C1059.40840271 3.37797101 1056.46125536 3.37921014 1053.51410803 3.38050953 C1026.03714548 3.3926224 998.56020251 3.39006182 971.08324051 3.37832069 C944.59747743 3.36701981 918.11172308 3.36103119 891.62595749 3.36250877 C889.96446693 3.36259418 888.30297638 3.36267906 886.64148582 3.36276341 C879.96508695 3.36311124 873.28868809 3.36349632 866.61228922 3.36392899 C847.94730299 3.36512379 829.28231681 3.36530543 810.61733055 3.36472607 C809.76727308 3.36470004 808.91721561 3.36467401 808.04139882 3.3646472 C780.9430114 3.36374814 753.8446267 3.35844694 726.74624062 3.3500185 C725.86695636 3.34974531 724.98767211 3.34947212 724.08174288 3.34919066 C709.80160123 3.34473667 695.52145967 3.34002204 681.24131811 3.33529177 C624.60521117 3.31654767 567.96911757 3.31012703 511.33300781 3.31567383 C507.7544455 3.31602081 504.17588318 3.31636643 500.59732087 3.31671212 C499.27015084 3.31684052 499.27015084 3.31684052 497.91616929 3.31697152 C488.11799503 3.31791761 478.31982077 3.31882933 468.5216465 3.31969929 C467.64302608 3.31977821 466.76440567 3.31985712 465.85916039 3.31993843 C418.45181655 3.32415864 371.0444742 3.31885872 323.63713109 3.310188 C321.96631279 3.30988471 320.29549449 3.30958181 318.62467619 3.3092793 C317.79872902 3.30912971 316.97278185 3.30898011 316.12180598 3.30882599 C314.45544726 3.30852457 312.78908854 3.30822358 311.12272983 3.30792303 C306.97122948 3.30717416 302.81972914 3.30641817 298.66822881 3.30564686 C280.45533404 3.30229585 262.24244038 3.3002307 244.02954531 3.30158257 C243.20806521 3.30164311 242.38658511 3.30170365 241.54021168 3.30176603 C237.40383056 3.30207802 233.26744945 3.30241144 229.13106834 3.30275235 C199.26451902 3.30520065 169.39798268 3.30116543 139.53143694 3.28554235 C136.59241043 3.28403234 133.65338391 3.28255231 130.71435738 3.2810955 C129.63238869 3.28055439 129.63238869 3.28055439 128.52856206 3.28000235 C117.08362948 3.27445483 105.63870773 3.27560698 94.19377489 3.27950034 C82.95379946 3.28317993 71.71384498 3.27958114 60.47387258 3.26863613 C54.45541785 3.26297721 48.43700751 3.26055365 42.41855235 3.26680271 C36.9528513 3.27240977 31.48723683 3.26895674 26.02154456 3.25800393 C24.04748006 3.25567998 22.07340814 3.25676801 20.09934801 3.26152648 C17.43464908 3.26746946 14.77025365 3.26126165 12.10557139 3.251849 C10.94717859 3.25884402 10.94717859 3.25884402 9.76538392 3.26598036 C6.02414054 3.23943439 3.17479402 3.09241813 0 1 C0 0.67 0 0.34 0 0 Z " fill="#F2B55E" transform="translate(171,395)"/>
<path d="M0 0 C0.33 0 0.66 0 1 0 C1 38.94 1 77.88 1 118 C-189.08 118 -379.16 118 -575 118 C-575 117.01 -575 116.02 -575 115 C-557.67897862 114.04798613 -540.40648005 113.87690868 -523.0625 113.9375 C-520.51757902 113.94253238 -517.97265706 113.94709217 -515.42773438 113.95117188 C-509.28513432 113.96202295 -503.14257199 113.97861927 -497 114 C-497 113.34 -497 112.68 -497 112 C-496.34 112 -495.68 112 -495 112 C-495 112.66 -495 113.32 -495 114 C-473.88 114 -452.76 114 -431 114 C-431 113.34 -431 112.68 -431 112 C-430.34 112 -429.68 112 -429 112 C-429 112.66 -429 113.32 -429 114 C-400.29 114 -371.58 114 -342 114 C-342 113.34 -342 112.68 -342 112 C-341.34 112 -340.68 112 -340 112 C-340 112.66 -340 113.32 -340 114 C-337.91695462 114.05418326 -335.83350232 114.09287551 -333.75 114.125 C-332.58984375 114.14820313 -331.4296875 114.17140625 -330.234375 114.1953125 C-327.17213954 114.0103949 -325.55797249 113.60823023 -323 112 C-323 112.66 -323 113.32 -323 114 C-322.21374741 113.98525131 -321.42749481 113.97050262 -320.61741638 113.95530701 C-313.18803259 113.81694417 -305.75858056 113.683993 -298.3289938 113.5570364 C-294.50987711 113.49158675 -290.69082021 113.42408527 -286.87182617 113.35180664 C-283.1825545 113.28206012 -279.4932234 113.21781835 -275.80378914 113.15730476 C-274.40004086 113.13333002 -272.99632431 113.10741114 -271.59264946 113.07946587 C-269.61842188 113.04050217 -267.64404675 113.00925017 -265.66967773 112.97827148 C-264.54826889 112.95828598 -263.42686005 112.93830048 -262.27146912 112.91770935 C-258.77920581 113.00555386 -255.44952541 113.46551473 -252 114 C-241.17865844 114.43538815 -230.26509688 113.76550267 -219.4465332 113.35180664 C-210.23857547 113.0045834 -201.26923496 113.08451443 -192.07348633 113.75756836 C-184.72743764 114.24830332 -177.35816987 114.10450592 -170 114.0625 C-168.4348973 114.0574649 -166.86979299 114.05290562 -165.3046875 114.04882812 C-161.53641734 114.03800474 -157.76822743 114.02085616 -154 114 C-154 114.66 -154 115.32 -154 116 C-152.80375 115.67 -151.6075 115.34 -150.375 115 C-146.84208503 114.10734177 -143.65920891 113.81703955 -140 114 C-140 113.34 -140 112.68 -140 112 C-139.34 112 -138.68 112 -138 112 C-138 112.66 -138 113.32 -138 114 C-133.35522856 114.02472039 -128.71049543 114.04286968 -124.06567383 114.05493164 C-122.48558892 114.05996014 -120.90550866 114.06678378 -119.32543945 114.07543945 C-117.05418754 114.08756992 -114.78299715 114.09324313 -112.51171875 114.09765625 C-111.45219246 114.10539818 -111.45219246 114.10539818 -110.3712616 114.11329651 C-107.29745609 114.11364803 -104.9409558 113.9803186 -102 113 C-100.32818374 113.30646253 -98.6617777 113.6430914 -97 114 C-95.19056554 114.08326173 -93.37848262 114.11784841 -91.56713867 114.11352539 C-89.97605537 114.11341209 -89.97605537 114.11341209 -88.35282898 114.11329651 C-87.2193251 114.10813522 -86.08582123 114.10297394 -84.91796875 114.09765625 C-83.74865311 114.0962413 -82.57933746 114.09482635 -81.37458801 114.09336853 C-77.64553249 114.08777793 -73.91653733 114.07522709 -70.1875 114.0625 C-67.65690191 114.05748379 -65.12630288 114.05292109 -62.59570312 114.04882812 C-56.39711487 114.03781157 -50.19856175 114.02108273 -44 114 C-44 113.34 -44 112.68 -44 112 C-42.77152344 112.32871094 -41.54304687 112.65742187 -40.27734375 112.99609375 C-34.36071938 114.30948484 -28.5947524 114.18220194 -22.5625 114.0625 C-20.41804432 114.02755715 -18.27350215 113.99754771 -16.12890625 113.97265625 C-15.19119385 113.95468994 -14.25348145 113.93672363 -13.28735352 113.91821289 C-8.84495568 114.02873671 -4.42171891 114.55782811 0 115 C0 77.05 0 39.1 0 0 Z " fill="#A09A8F" transform="translate(766,445)"/>
<path d="M0 0 C0.79921875 0.00902344 1.5984375 0.01804687 2.421875 0.02734375 C3.02515625 0.03894531 3.6284375 0.05054688 4.25 0.0625 C5.99553098 39.32301987 6.07667603 78.80353983 4.25 118.0625 C2.765 118.5575 2.765 118.5575 1.25 119.0625 C1.25 119.7225 1.25 120.3825 1.25 121.0625 C-0.359375 122.75390625 -0.359375 122.75390625 -2.5 124.625 C-3.54414063 125.55505859 -3.54414063 125.55505859 -4.609375 126.50390625 C-6.76307083 128.0720169 -8.19344034 128.5109868 -10.75 129.0625 C-11.46335122 102.00068661 -11.85984509 74.94651707 -11.87338257 47.87582397 C-11.87499203 45.76047292 -11.87854556 43.64513288 -11.88256836 41.52978516 C-11.88958206 37.52374242 -11.88696583 33.51776579 -11.8828125 29.51171875 C-11.88479645 28.32909958 -11.8867804 27.14648041 -11.88882446 25.92802429 C-11.83278061 5.68667091 -11.83278061 5.68667091 -8.75 1.0625 C-5.83835102 -0.02625763 -3.08481334 -0.0453649 0 0 Z " fill="#93551F" transform="translate(181.75,446.9375)"/>
<path d="M0 0 C284.13 0.495 284.13 0.495 574 1 C574.33 1.99 574.66 2.98 575 4 C385.25 4 195.5 4 0 4 C0 2.68 0 1.36 0 0 Z " fill="#EBE6E0" transform="translate(191,440)"/>
<path d="M0 0 C0.33 1.32 0.66 2.64 1 4 C-188.42 4 -377.84 4 -573 4 C-573 3.01 -573 2.02 -573 1 C-383.91 0.67 -194.82 0.34 0 0 Z " fill="#EBE6E0" transform="translate(1343,440)"/>
<path d="M0 0 C0.33 0 0.66 0 1 0 C1 38.94 1 77.88 1 118 C-164.66 117.67 -330.32 117.34 -501 117 C-501 116.67 -501 116.34 -501 116 C-499.3388008 115.99503478 -499.3388008 115.99503478 -497.64404202 115.98996925 C-470.60582299 115.90871161 -443.56765913 115.81631741 -416.52951717 115.71247292 C-403.45369047 115.66250666 -390.37786954 115.6160629 -377.30200195 115.578125 C-365.89538578 115.54502104 -354.48881662 115.50509051 -343.08225256 115.45720994 C-337.05140358 115.43212649 -331.02058504 115.4102933 -324.98969841 115.39665604 C-319.29420845 115.38366878 -313.59882391 115.36144163 -307.90339279 115.33261681 C-305.83125397 115.32366935 -303.75909823 115.31788154 -301.68694115 115.31578636 C-289.9246096 115.30178398 -278.33884045 114.8673701 -266.63645643 113.60732043 C-261.52571718 113.08371681 -257.097529 113.04844274 -252 114 C-241.17865844 114.43538815 -230.26509688 113.76550267 -219.4465332 113.35180664 C-210.23857547 113.0045834 -201.26923496 113.08451443 -192.07348633 113.75756836 C-184.72743764 114.24830332 -177.35816987 114.10450592 -170 114.0625 C-168.4348973 114.0574649 -166.86979299 114.05290562 -165.3046875 114.04882812 C-161.53641734 114.03800474 -157.76822743 114.02085616 -154 114 C-154 114.66 -154 115.32 -154 116 C-152.80375 115.67 -151.6075 115.34 -150.375 115 C-146.84208503 114.10734177 -143.65920891 113.81703955 -140 114 C-140 113.34 -140 112.68 -140 112 C-139.34 112 -138.68 112 -138 112 C-138 112.66 -138 113.32 -138 114 C-133.35522856 114.02472039 -128.71049543 114.04286968 -124.06567383 114.05493164 C-122.48558892 114.05996014 -120.90550866 114.06678378 -119.32543945 114.07543945 C-117.05418754 114.08756992 -114.78299715 114.09324313 -112.51171875 114.09765625 C-111.45219246 114.10539818 -111.45219246 114.10539818 -110.3712616 114.11329651 C-107.29745609 114.11364803 -104.9409558 113.9803186 -102 113 C-100.32818374 113.30646253 -98.6617777 113.6430914 -97 114 C-95.19056554 114.08326173 -93.37848262 114.11784841 -91.56713867 114.11352539 C-89.97605537 114.11341209 -89.97605537 114.11341209 -88.35282898 114.11329651 C-87.2193251 114.10813522 -86.08582123 114.10297394 -84.91796875 114.09765625 C-83.74865311 114.0962413 -82.57933746 114.09482635 -81.37458801 114.09336853 C-77.64553249 114.08777793 -73.91653733 114.07522709 -70.1875 114.0625 C-67.65690191 114.05748379 -65.12630288 114.05292109 -62.59570312 114.04882812 C-56.39711487 114.03781157 -50.19856175 114.02108273 -44 114 C-44 113.34 -44 112.68 -44 112 C-42.77152344 112.32871094 -41.54304688 112.65742187 -40.27734375 112.99609375 C-34.36071938 114.30948484 -28.5947524 114.18220194 -22.5625 114.0625 C-20.41804432 114.02755715 -18.27350215 113.99754771 -16.12890625 113.97265625 C-15.19119385 113.95468994 -14.25348145 113.93672363 -13.28735352 113.91821289 C-8.84495568 114.02873671 -4.42171891 114.55782811 0 115 C0 77.05 0 39.1 0 0 Z " fill="#969087" transform="translate(766,445)"/>
<path d="M0 0 C0 16.17 0 32.34 0 49 C-10.90909091 50.21212121 -10.90909091 50.21212121 -16 50 C-17 49 -17 49 -17.11352539 45.67358398 C-17.11336629 44.19774444 -17.10767314 42.72189931 -17.09765625 41.24609375 C-17.09553383 40.08292381 -17.09553383 40.08292381 -17.09336853 38.89625549 C-17.08775345 36.40996506 -17.07519846 33.9237634 -17.0625 31.4375 C-17.05748694 29.75586067 -17.0529237 28.07421994 -17.04882812 26.39257812 C-17.03777913 22.26168434 -17.02050445 18.13085724 -17 14 C-16.01 13.67 -15.02 13.34 -14 13 C-12.28547658 11.30846256 -12.28547658 11.30846256 -10.625 9.25 C-2.75584532 0 -2.75584532 0 0 0 Z " fill="#C07428" transform="translate(1365,398)"/>
<path d="M0 0 C4.455 2.97 4.455 2.97 9 6 C11.31 6.66 13.62 7.32 16 8 C16 19.55 16 31.1 16 43 C11.63744078 43.87251184 7.40860079 44.47694567 3 45 C2.18537505 49.65499974 1.56606279 54.30976546 1 59 C0.67 59 0.34 59 0 59 C0 39.53 0 20.06 0 0 Z " fill="#CC802E" transform="translate(170,404)"/>
<path d="M0 0 C0.99 0 1.98 0 3 0 C3 38.28 3 76.56 3 116 C9.4202491 116.36893239 9.4202491 116.36893239 13 115 C13.495 114.01 13.495 114.01 14 113 C14.66 113 15.32 113 16 113 C16 113.66 16 114.32 16 115 C59.23 115 102.46 115 147 115 C147 115.66 147 116.32 147 117 C163.5 117 180 117 197 117 C197 117.33 197 117.66 197 118 C100.475 118.495 100.475 118.495 2 119 C2 80.06 2 41.12 2 1 C1.34 0.67 0.68 0.34 0 0 Z " fill="#938D84" transform="translate(767,444)"/>
<path d="M0 0 C33.99 0 67.98 0 103 0 C103 0.33 103 0.66 103 1 C53.5 1.495 53.5 1.495 3 2 C3 36.32 3 70.64 3 106 C2.67 106 2.34 106 2 106 C1.67 132.73 1.34 159.46 1 187 C0.67 187 0.34 187 0 187 C0 125.29 0 63.58 0 0 Z " fill="#433220" transform="translate(167,392)"/>
<path d="M0 0 C0.66 0 1.32 0 2 0 C2.33 49.83 2.66 99.66 3 151 C37.32 151.33 71.64 151.66 107 152 C107 152.33 107 152.66 107 153 C71.36 153 35.72 153 -1 153 C-1 117.14136241 -1 117.14136241 -0.84753418 99.88697815 C-0.83673325 98.64666903 -0.82593231 97.4063599 -0.81480408 96.12846565 C-0.80373123 94.86017355 -0.79265839 93.59188145 -0.78125 92.28515625 C-0.75871699 89.59419337 -0.73628661 86.90322983 -0.71398926 84.21226501 C-0.66189738 77.95174537 -0.60851589 71.69123747 -0.5546174 65.43073314 C-0.493113 58.2790103 -0.43312796 51.12727493 -0.37324238 43.97553837 C-0.25046556 29.31701157 -0.12587227 14.65850056 0 0 Z " fill="#35261A" transform="translate(188,413)"/>
<path d="M0 0 C2.39062344 0.11342665 4.783869 0.17598438 7.17700195 0.20532227 C8.23148277 0.22017166 8.23148277 0.22017166 9.30726624 0.23532104 C11.61757099 0.2667633 13.92789626 0.29162468 16.23828125 0.31640625 C17.84539812 0.33699072 19.45250976 0.35798758 21.05961609 0.37937927 C25.27963002 0.43444579 29.49969156 0.48392276 33.7197876 0.53222656 C38.03003146 0.58255451 42.3402066 0.6381815 46.65039062 0.69335938 C55.10020223 0.80075221 63.5500715 0.90223871 72 1 C72 1.33 72 1.66 72 2 C-30.63 2 -133.26 2 -239 2 C-239 1.67 -239 1.34 -239 1 C-237.88515952 0.99576806 -236.77031904 0.99153612 -235.62169552 0.98717594 C-208.45278028 0.88382711 -181.28389082 0.77505926 -154.1150198 0.66066074 C-140.97618405 0.60546226 -127.83734558 0.5520028 -114.69848633 0.50268555 C-103.24215633 0.45967927 -91.78584525 0.4133609 -80.3295446 0.36312145 C-74.26765526 0.33665235 -68.20576935 0.3118037 -62.14385796 0.29092598 C-56.4287265 0.27119015 -50.7136306 0.24699854 -44.99853134 0.21950912 C-42.91012665 0.21022759 -40.82171422 0.20252135 -38.73329735 0.19658089 C-28.44741954 0.1664421 -18.25184624 0.03803185 -8.00290012 -0.88612461 C-5.10691416 -0.99594562 -2.806912 -0.65314786 0 0 Z " fill="#8F887E" transform="translate(504,560)"/>
<path d="M0 0 C0.33 0 0.66 0 1 0 C1 16.17 1 32.34 1 49 C4.80850575 46.71489655 7.09140717 45.12404415 10 42 C10.99 42.33 11.98 42.66 13 43 C11.68 44.98 10.36 46.96 9 49 C13.14581543 49.03076584 17.29160054 49.04734528 21.4375 49.0625 C22.54416016 49.07087891 23.65082031 49.07925781 24.79101562 49.08789062 C31.3669484 49.10552047 37.92620324 49.01570451 44.49829102 48.77514648 C70.15777983 47.84095981 95.80240751 47.88238393 121.47637939 47.93133545 C127.53177533 47.94174469 133.58717574 47.94616994 139.64257812 47.95117188 C151.42839677 47.9617525 163.21419615 47.97871597 175 48 C175.33 48.66 175.66 49.32 176 50 C158.81098979 50.13219825 141.62196721 50.26264332 124.43292904 50.39115143 C116.44689763 50.45089469 108.4608709 50.51116238 100.47485352 50.57275391 C66.98265105 50.83079601 33.49356269 51.0694707 0 51 C0 34.17 0 17.34 0 0 Z " fill="#603917" transform="translate(170,527)"/>
<path d="M0 0 C0.495 0.99 0.495 0.99 1 2 C24.43 2 47.86 2 72 2 C72 1.34 72 0.68 72 0 C72.66 0 73.32 0 74 0 C74 0.66 74 1.32 74 2 C97.43 2 120.86 2 145 2 C144.67 2.66 144.34 3.32 144 4 C123.89242982 4.02346863 103.78486246 4.04104724 83.67728138 4.05181217 C74.33880464 4.05694568 65.00033647 4.06393153 55.66186523 4.07543945 C47.51258754 4.08547704 39.36331606 4.09187479 31.21403235 4.09408849 C26.9080441 4.09538035 22.60207359 4.09836772 18.29609108 4.10573006 C0.84017659 4.13446412 -16.57126135 4.13229067 -34 3 C-34 2.67 -34 2.34 -34 2 C-29.97962032 1.80179011 -25.95869488 1.6183533 -21.9375 1.4375 C-20.80376953 1.38142578 -19.67003906 1.32535156 -18.50195312 1.26757812 C-9.04150014 0.85385569 -9.04150014 0.85385569 -4.81640625 1.59765625 C-3.88699219 1.73042969 -2.95757813 1.86320313 -2 2 C-1.34 1.34 -0.68 0.68 0 0 Z " fill="#9B948A" transform="translate(1089,557)"/>
<path d="M0 0 C64.35 0 128.7 0 195 0 C195 0.33 195 0.66 195 1 C131.97 1 68.94 1 4 1 C4 10.57 4 20.14 4 30 C3.01 29.67 2.02 29.34 1 29 C-2.05868527 19.8239442 0 9.67241209 0 0 Z " fill="#BFBAB0" transform="translate(766,414)"/>
<path d="M0 0 C3.85681027 0.00538934 7.71350562 0.00001026 11.5703125 -0.00634766 C14.05468775 -0.00568726 16.53906294 -0.00440691 19.0234375 -0.00244141 C20.16013885 -0.00446564 21.29684021 -0.00648987 22.46798706 -0.00857544 C29.35479627 0.01142337 36.12254612 0.37920006 42.96875 1.13037109 C42.96875 1.46037109 42.96875 1.79037109 42.96875 2.13037109 C33.24582548 3.16553171 23.59016968 3.26152991 13.828125 3.22802734 C12.20859827 3.22615766 10.58907096 3.22473636 8.96954346 3.22373962 C4.74792871 3.21995772 0.52634945 3.21016544 -3.69525146 3.19903564 C-8.01948568 3.18872746 -12.34372574 3.18422203 -16.66796875 3.17919922 C-25.12241196 3.16853841 -33.57682654 3.1515153 -42.03125 3.13037109 C-42.03125 2.47037109 -42.03125 1.81037109 -42.03125 1.13037109 C-28.02611542 0.01997664 -14.04309198 -0.02338117 0 0 Z " fill="#969086" transform="translate(234.03125,558.86962890625)"/>
<path d="M0 0 C0.33 0 0.66 0 1 0 C2.21011764 9.85357003 2.1284748 19.66687411 2.09765625 29.57421875 C2.09578756 31.3521165 2.09436579 33.13001476 2.09336853 34.90791321 C2.08957881 39.55204733 2.07977944 44.1961494 2.06866455 48.840271 C2.05837357 53.59337938 2.05385455 58.34649302 2.04882812 63.09960938 C2.03815346 72.39975354 2.02112043 81.69987409 2 91 C4.31 91 6.62 91 9 91 C9 91.33 9 91.66 9 92 C4.05 92.495 4.05 92.495 -1 93 C-0.67 62.31 -0.34 31.62 0 0 Z " fill="#372714" transform="translate(168,487)"/>
<path d="M0 0 C2 2 2 2 2.24609566 4.10456276 C2.24333028 5.41811776 2.24333028 5.41811776 2.24050903 6.75820923 C2.24325836 7.76224289 2.24600769 8.76627655 2.24884033 9.80073547 C2.24164978 10.90628281 2.23445923 12.01183014 2.22705078 13.15087891 C2.22734283 14.31184586 2.22763489 15.47281281 2.22793579 16.66896057 C2.22653804 20.52156954 2.21095575 24.37398715 2.1953125 28.2265625 C2.19158395 30.8917168 2.1886379 33.55686037 2.18673706 36.22201538 C2.18051488 42.52956575 2.16409413 48.837047 2.14403808 55.14456689 C2.12170199 62.32463622 2.11069143 69.5047088 2.10064721 76.6848042 C2.07972851 91.45657153 2.04453823 106.22828456 2 121 C1.67 121 1.34 121 1 121 C1 82.39 1 43.78 1 4 C-4.3389956 8.67162115 -8.61385104 12.62696752 -13 18 C-13.66 17.67 -14.32 17.34 -15 17 C-13.41050558 12.78134186 -10.23997378 10.26418174 -6.9375 7.375 C-2.95679746 4.10808874 -2.95679746 4.10808874 0 0 Z " fill="#754316" transform="translate(1364,394)"/>
<path d="M0 0 C0.33 0 0.66 0 1 0 C1.6243258 8.0827894 2.09830544 16.14194619 2.09375 24.25 C2.09334717 25.04517532 2.09294434 25.84035065 2.0925293 26.65962219 C2.0325797 39.1752026 1.47528982 51.68243352 1 64.1875 C0.90332663 66.79881633 0.80697027 69.41014441 0.7109375 72.02148438 C0.47760642 78.3477962 0.24038681 84.67395255 0 91 C-1.65 90.67 -3.3 90.34 -5 90 C-3.02 89.505 -3.02 89.505 -1 89 C-1.00222061 88.31271317 -1.00444122 87.62542633 -1.00672913 86.91731262 C-1.02716121 80.28936937 -1.04218506 73.66143547 -1.05181217 67.03346729 C-1.05692858 63.62979533 -1.06440145 60.22617048 -1.07543945 56.82250977 C-1.13531249 37.84979981 -0.79785328 18.9547468 0 0 Z " fill="#492D12" transform="translate(1366,486)"/>
<path d="M0 0 C0.33 0 0.66 0 1 0 C1.33 20.46 1.66 40.92 2 62 C3.65 62.66 5.3 63.32 7 64 C9.14619884 65.53632455 11.01674422 67.24735536 13 69 C12.01 69.66 11.02 70.32 10 71 C9.48486343 70.43410156 8.96972687 69.86820313 8.4389801 69.28515625 C3.30679299 64.13319799 -0.20159826 62.08552559 -7.49049377 61.94116211 C-9.0285392 61.97028687 -9.0285392 61.97028687 -10.59765625 62 C-12.20996376 61.9836853 -12.20996376 61.9836853 -13.85484314 61.96704102 C-17.25843605 61.9410283 -20.65899056 61.96963949 -24.0625 62 C-26.38217693 61.99190227 -28.70184428 61.98021969 -31.02148438 61.96484375 C-36.68153926 61.9351006 -42.34011661 61.95009217 -48 62 C-48 61.67 -48 61.34 -48 61 C-32.16 61 -16.32 61 0 61 C0 40.87 0 20.74 0 0 Z " fill="#603716" transform="translate(1348,505)"/>
<path d="M0 0 C5.42665724 0.58112467 10.72040343 0.5387934 16.16845703 0.36132812 C18.20491533 0.30794132 20.24137366 0.25455595 22.27783203 0.20117188 C25.43023544 0.11081014 28.58255818 0.01804154 31.73486328 -0.07568359 C44.05582003 -0.43317685 56.18459861 -0.57393522 68.47314453 0.51757812 C68.47314453 0.84757813 68.47314453 1.17757812 68.47314453 1.51757812 C60.48271409 2.61466866 52.57116321 2.68127586 44.51611328 2.68554688 C43.08124255 2.6887662 41.64637214 2.69213076 40.21150208 2.69563293 C37.22196694 2.70158516 34.23246056 2.70347654 31.24291992 2.70288086 C27.41527217 2.70277867 23.58780754 2.71650653 19.76020336 2.73365307 C16.80480602 2.7447669 13.84945335 2.74680037 10.89403725 2.74627113 C9.48225579 2.74744926 8.07047311 2.75186165 6.65871239 2.7596035 C4.68957286 2.76940402 2.72037886 2.76526093 0.7512207 2.76049805 C-0.92681389 2.76263557 -0.92681389 2.76263557 -2.63874817 2.76481628 C-5.47347666 2.52214765 -7.12451634 1.98923516 -9.52685547 0.51757812 C-6.17115232 -0.48913282 -3.41988128 -0.42696012 0 0 Z " fill="#9E988E" transform="translate(509.52685546875,558.482421875)"/>
<path d="M0 0 C0 0.66 0 1.32 0 2 C16.83 2 33.66 2 51 2 C49 4 49 4 46.67147827 4.24050903 C45.6988504 4.23606781 44.72622253 4.23162659 43.72412109 4.22705078 C42.6231308 4.22689972 41.5221405 4.22674866 40.38778687 4.22659302 C39.19505157 4.21627045 38.00231628 4.20594788 36.7734375 4.1953125 C35.55548492 4.1924826 34.33753235 4.18965271 33.08267212 4.18673706 C29.18001617 4.17551256 25.27758697 4.15040372 21.375 4.125 C18.73437831 4.11497314 16.09375303 4.10584678 13.453125 4.09765625 C6.9686722 4.07556581 0.4843523 4.04206592 -6 4 C-2.25 0 -2.25 0 0 0 Z " fill="#9A948A" transform="translate(783,557)"/>
<path d="M0 0 C4.455 2.97 4.455 2.97 9 6 C12.83745769 7.38671365 12.83745769 7.38671365 16 8 C16 8.33 16 8.66 16 9 C14.06215735 8.85879286 12.12473045 8.71187127 10.1875 8.5625 C9.10855469 8.48128906 8.02960938 8.40007812 6.91796875 8.31640625 C4 8 4 8 1 7 C1 19.21 1 31.42 1 44 C1.66 44.33 2.32 44.66 3 45 C2.855625 45.825 2.71125 46.65 2.5625 47.5 C1.94746848 51.32686278 1.46439363 55.15216707 1 59 C0.67 59 0.34 59 0 59 C0 39.53 0 20.06 0 0 Z " fill="#BF7B31" transform="translate(170,404)"/>
<path d="M0 0 C0.495 0.99 0.495 0.99 1 2 C13.87 2 26.74 2 40 2 C40 2.33 40 2.66 40 3 C35.18441702 3.14565676 30.36874762 3.28787843 25.55297852 3.42724609 C23.92306951 3.47486034 22.29318519 3.52332918 20.66333008 3.57275391 C5.57718737 4.02920404 -9.48314852 4.33711329 -24.5625 3.5 C-25.48740234 3.45230469 -26.41230469 3.40460937 -27.36523438 3.35546875 C-29.57705984 3.24086639 -31.78859714 3.12243962 -34 3 C-34 2.67 -34 2.34 -34 2 C-29.97962032 1.80179011 -25.95869488 1.6183533 -21.9375 1.4375 C-20.80376953 1.38142578 -19.67003906 1.32535156 -18.50195312 1.26757812 C-9.04150014 0.85385569 -9.04150014 0.85385569 -4.81640625 1.59765625 C-3.88699219 1.73042969 -2.95757813 1.86320313 -2 2 C-1.34 1.34 -0.68 0.68 0 0 Z " fill="#A19B91" transform="translate(1089,557)"/>
<path d="M0 0 C26.4 0 52.8 0 80 0 C80 0.99 80 1.98 80 3 C79.01 3.33 78.02 3.66 77 4 C77 3.34 77 2.68 77 2 C51.59 1.67 26.18 1.34 0 1 C0 0.67 0 0.34 0 0 Z " fill="#DD9B48" transform="translate(1280,397)"/>
<path d="M0 0 C-0.66 0.99 -1.32 1.98 -2 3 C-4.97390747 3.32279968 -4.97390747 3.32279968 -8.83642578 3.2487793 C-9.53897491 3.23946381 -10.24152405 3.23014832 -10.96536255 3.22055054 C-13.29249753 3.18611617 -15.61860513 3.13023579 -17.9453125 3.07421875 C-19.55668945 3.04619279 -21.16809012 3.01950162 -22.7795105 2.99409485 C-27.02460261 2.92356424 -31.26912964 2.83485851 -35.51379395 2.74243164 C-39.84363659 2.65134524 -44.17376714 2.57735736 -48.50390625 2.50195312 C-57.0029809 2.35141934 -65.50153469 2.18169383 -74 2 C-74 1.67 -74 1.34 -74 1 C-66.1234716 0.86844605 -58.24692596 0.73798011 -50.37035751 0.60884857 C-46.7117399 0.54883474 -43.0531289 0.48846623 -39.39453125 0.42724609 C-35.85430524 0.36802043 -32.31406419 0.30978004 -28.77381134 0.25218201 C-26.78667622 0.21960736 -24.79955728 0.18604987 -22.81243896 0.15246582 C-15.20745554 0.02971517 -7.60595551 -0.02776137 0 0 Z " fill="#F4BB65" transform="translate(1364,395)"/>
<path d="M0 0 C0.99 0 1.98 0 3 0 C3 9.9 3 19.8 3 30 C1 29 1 29 0 26 C-0.08291953 24.0079697 -0.10738177 22.01326287 -0.09765625 20.01953125 C-0.09443359 18.85615234 -0.09121094 17.69277344 -0.08789062 16.49414062 C-0.07951172 15.27919922 -0.07113281 14.06425781 -0.0625 12.8125 C-0.05798828 11.58595703 -0.05347656 10.35941406 -0.04882812 9.09570312 C-0.03703065 6.06375332 -0.02056921 3.03190094 0 0 Z " fill="#A7A29B" transform="translate(766,414)"/>
<path d="M0 0 C2.95576246 1.3222024 4.86422151 2.76227804 7.10571289 5.07470703 C11.53390576 8.9427719 15.6220788 8.86051371 21.30859375 8.8046875 C22.27531509 8.81839386 23.24203644 8.83210022 24.23805237 8.84622192 C27.30501322 8.88340848 30.37034639 8.87981462 33.4375 8.875 C35.52541581 8.89313467 37.61331024 8.91393977 39.70117188 8.9375 C44.80105263 8.989245 49.8998712 9.00443793 55 9 C55 9.33 55 9.66 55 10 C48.77600461 10.36762505 42.55310933 10.67253217 36.32324219 10.92163086 C34.20817409 11.01479073 32.09376534 11.12455022 29.98046875 11.25170898 C10.14897609 12.42569593 10.14897609 12.42569593 3.5546875 6.62109375 C0 2.61142217 0 2.61142217 0 0 Z " fill="#AC6D2C" transform="translate(175,400)"/>
<path d="M0 0 C0.33 1.32 0.66 2.64 1 4 C-3.625 8 -3.625 8 -7 8 C-7 19.22 -7 30.44 -7 42 C-7.33 42 -7.66 42 -8 42 C-8 30.45 -8 18.9 -8 7 C-7.01 6.67 -6.02 6.34 -5 6 C-3.57142881 4.59894424 -3.57142881 4.59894424 -2.3125 2.9375 C-1.1678125 1.4834375 -1.1678125 1.4834375 0 0 Z " fill="#A16428" transform="translate(1356,405)"/>
<path d="M0 0 C0 0.66 0 1.32 0 2 C9.9 2 19.8 2 30 2 C30 2.33 30 2.66 30 3 C17.9934657 3.61321066 6.02556648 4.184693 -6 4 C-2.25 0 -2.25 0 0 0 Z " fill="#A09990" transform="translate(783,557)"/>
<path d="M0 0 C0.66 0 1.32 0 2 0 C2 0.66 2 1.32 2 2 C5.96 2 9.92 2 14 2 C14 2.66 14 3.32 14 4 C6.41 4 -1.18 4 -9 4 C-8.67 3.34 -8.34 2.68 -8 2 C-5.36 2 -2.72 2 0 2 C0 1.34 0 0.68 0 0 Z " fill="#9E988F" transform="translate(626,557)"/>
<path d="M0 0 C0.33 1.32 0.66 2.64 1 4 C0.49210937 4.42410156 -0.01578125 4.84820312 -0.5390625 5.28515625 C-5.16626354 9.22780882 -9.15591946 13.29100134 -13 18 C-13.66 17.67 -14.32 17.34 -15 17 C-13.41050558 12.78134186 -10.23997378 10.26418174 -6.9375 7.375 C-2.95679746 4.10808874 -2.95679746 4.10808874 0 0 Z " fill="#895B29" transform="translate(1364,394)"/>
<path d="M0 0 C-0.33 0.66 -0.66 1.32 -1 2 C-3.51363917 2.3679944 -5.9100397 2.60530698 -8.4375 2.75 C-9.47874023 2.83314453 -9.47874023 2.83314453 -10.54101562 2.91796875 C-12.35717938 3.03400632 -14.1803019 3.0247859 -16 3 C-16.66 2.34 -17.32 1.68 -18 1 C-16.1746875 0.7834375 -16.1746875 0.7834375 -14.3125 0.5625 C-11.92006919 0.2718702 -9.66390884 -0.07816074 -7.3125 -0.625 C-4.62665672 -1.06054215 -2.61793448 -0.67318315 0 0 Z " fill="#99938A" transform="translate(668,559)"/>
<path d="M0 0 C3.23861303 1.44424635 5.61969163 3.25772247 8.25 5.625 C8.95640625 6.25664062 9.6628125 6.88828125 10.390625 7.5390625 C10.92171875 8.02117187 11.4528125 8.50328125 12 9 C11.34 9.66 10.68 10.32 10 11 C8.32742645 9.5484451 6.66208242 8.08855591 5 6.625 C3.6078125 5.40683594 3.6078125 5.40683594 2.1875 4.1640625 C1.465625 3.44992187 0.74375 2.73578125 0 2 C0 1.34 0 0.68 0 0 Z " fill="#905E2C" transform="translate(175,400)"/>
<path d="M0 0 C0.99 0.33 1.98 0.66 3 1 C1.02 3.97 1.02 3.97 -1 7 C-2.32 6.34 -3.64 5.68 -5 5 C-3.35 3.35 -1.7 1.7 0 0 Z " fill="#573418" transform="translate(180,569)"/>
<path d="M0 0 C2.31 0 4.62 0 7 0 C7 0.99 7 1.98 7 3 C5.02 3 3.04 3 1 3 C0.67 2.01 0.34 1.02 0 0 Z " fill="#D8D4CD" transform="translate(191,438)"/>
<path d="M0 0 C0.66 0 1.32 0 2 0 C0.79618552 2.49361571 -0.45428722 4.68143083 -2 7 C-2.66 6.67 -3.32 6.34 -4 6 C-2.84826645 3.53199953 -1.95216435 1.95216435 0 0 Z " fill="#7C5126" transform="translate(1353,405)"/>
</svg>
