<svg xmlns="http://www.w3.org/2000/svg" style="display:none">
  <!-- Stroke style: round, consistent across icons -->
  <symbol id="calendar" viewBox="0 0 24 24">
    <path d="M8 2v3M16 2v3" fill="none" stroke="currentColor" stroke-width="2" stroke-linecap="round"/>
    <path d="M3.5 9h17" fill="none" stroke="currentColor" stroke-width="2" stroke-linecap="round"/>
    <path d="M6 5h12a3 3 0 0 1 3 3v12a3 3 0 0 1-3 3H6a3 3 0 0 1-3-3V8a3 3 0 0 1 3-3Z" fill="none" stroke="currentColor" stroke-width="2" stroke-linejoin="round"/>
  </symbol>

  <symbol id="floor" viewBox="0 0 24 24">
    <path d="M4 6h16M4 12h16M4 18h16" fill="none" stroke="currentColor" stroke-width="2" stroke-linecap="round"/>
    <path d="M8 6v12M16 6v12" fill="none" stroke="currentColor" stroke-width="2" stroke-linecap="round"/>
  </symbol>

  <symbol id="shifts" viewBox="0 0 24 24">
    <path d="M12 6v6l4 2" fill="none" stroke="currentColor" stroke-width="2" stroke-linecap="round" stroke-linejoin="round"/>
    <path d="M21 12a9 9 0 1 1-9-9" fill="none" stroke="currentColor" stroke-width="2" stroke-linecap="round"/>
  </symbol>

  <symbol id="users" viewBox="0 0 24 24">
    <path d="M16 11a4 4 0 1 0-8 0a4 4 0 0 0 8 0Z" fill="none" stroke="currentColor" stroke-width="2" stroke-linejoin="round"/>
    <path d="M4 20a8 8 0 0 1 16 0" fill="none" stroke="currentColor" stroke-width="2" stroke-linecap="round"/>
  </symbol>

  <symbol id="box" viewBox="0 0 24 24">
    <path d="M3 7l9-4l9 4l-9 4Z" fill="none" stroke="currentColor" stroke-width="2" stroke-linejoin="round"/>
    <path d="M3 7v10l9 4l9-4V7" fill="none" stroke="currentColor" stroke-width="2" stroke-linejoin="round"/>
    <path d="M12 11v10" fill="none" stroke="currentColor" stroke-width="2" stroke-linecap="round"/>
  </symbol>

  <symbol id="chart" viewBox="0 0 24 24">
    <path d="M4 20V4" fill="none" stroke="currentColor" stroke-width="2" stroke-linecap="round"/>
    <path d="M4 20h16" fill="none" stroke="currentColor" stroke-width="2" stroke-linecap="round"/>
    <path d="M8 16v-5M12 16v-8M16 16v-3M20 16v-10" fill="none" stroke="currentColor" stroke-width="2" stroke-linecap="round"/>
  </symbol>

  <symbol id="plus" viewBox="0 0 24 24">
    <path d="M12 5v14M5 12h14" fill="none" stroke="currentColor" stroke-width="2" stroke-linecap="round"/>
  </symbol>

  <symbol id="chevron-down" viewBox="0 0 24 24">
    <path d="M6 9l6 6l6-6" fill="none" stroke="currentColor" stroke-width="2" stroke-linecap="round" stroke-linejoin="round"/>
  </symbol>

  <symbol id="chev" viewBox="0 0 24 24">
    <path d="M10 6l6 6l-6 6" fill="none" stroke="currentColor" stroke-width="2" stroke-linecap="round" stroke-linejoin="round"/>
  </symbol>

  <symbol id="home" viewBox="0 0 24 24">
    <path d="M3 10.5l9-7l9 7" fill="none" stroke="currentColor" stroke-width="2" stroke-linecap="round" stroke-linejoin="round"/>
    <path d="M5 10v10a2 2 0 0 0 2 2h10a2 2 0 0 0 2-2V10" fill="none" stroke="currentColor" stroke-width="2" stroke-linejoin="round"/>
  </symbol>

  <symbol id="settings" viewBox="0 0 24 24">
    <path d="M12 15.5a3.5 3.5 0 1 0 0-7a3.5 3.5 0 0 0 0 7Z" fill="none" stroke="currentColor" stroke-width="2"/>
    <path d="M19.4 15a7.9 7.9 0 0 0 .1-1l2-1.2l-2-3.4l-2.3.7a8 8 0 0 0-1.7-1l-.3-2.4H8.8l-.3 2.4a8 8 0 0 0-1.7 1l-2.3-.7l-2 3.4l2 1.2a7.9 7.9 0 0 0 .1 1a7.9 7.9 0 0 0-.1 1l-2 1.2l2 3.4l2.3-.7a8 8 0 0 0 1.7 1l.3 2.4h6.4l.3-2.4a8 8 0 0 0 1.7-1l2.3.7l2-3.4l-2-1.2a7.9 7.9 0 0 0-.1-1Z" fill="none" stroke="currentColor" stroke-width="2" stroke-linecap="round" stroke-linejoin="round"/>
  </symbol>

  <symbol id="check" viewBox="0 0 24 24">
    <path d="M20 6L9 17l-5-5" fill="none" stroke="currentColor" stroke-width="2" stroke-linecap="round" stroke-linejoin="round"/>
  </symbol>

  <symbol id="bell" viewBox="0 0 24 24">
    <path d="M18 8a6 6 0 1 0-12 0c0 7-3 7-3 7h18s-3 0-3-7" fill="none" stroke="currentColor" stroke-width="2" stroke-linecap="round" stroke-linejoin="round"/>
    <path d="M13.7 21a2 2 0 0 1-3.4 0" fill="none" stroke="currentColor" stroke-width="2" stroke-linecap="round"/>
  </symbol>

  <symbol id="search" viewBox="0 0 24 24">
    <path d="M11 19a8 8 0 1 1 0-16a8 8 0 0 1 0 16Z" fill="none" stroke="currentColor" stroke-width="2" stroke-linecap="round" stroke-linejoin="round"/>
    <path d="M21 21l-4.35-4.35" fill="none" stroke="currentColor" stroke-width="2" stroke-linecap="round"/>
  </symbol>
</svg>
