<svg xmlns="http://www.w3.org/2000/svg" viewBox="0 0 240 160">
  <defs>
    <linearGradient id="cush" x1="0" x2="0" y1="0" y2="1">
      <stop offset="0" stop-color="#4bb4ff"/>
      <stop offset="1" stop-color="#0f2f68"/>
    </linearGradient>
    <linearGradient id="seat" x1="0" x2="1">
      <stop offset="0" stop-color="#0b1f46"/>
      <stop offset="1" stop-color="#163a7a"/>
    </linearGradient>
    <linearGradient id="wood" x1="0" x2="1">
      <stop offset="0" stop-color="#c08a4e"/>
      <stop offset="1" stop-color="#7a4a22"/>
    </linearGradient>
    <pattern id="woodGrain" width="24" height="24" patternUnits="userSpaceOnUse">
      <path d="M0 6c8-6 16 6 24 0" fill="none" stroke="#5b3518" stroke-opacity=".18" stroke-width="2"/>
      <path d="M0 18c8-6 16 6 24 0" fill="none" stroke="#5b3518" stroke-opacity=".14" stroke-width="2"/>
    </pattern>
    <filter id="shadow" x="-20%" y="-20%" width="140%" height="140%">
      <feDropShadow dx="0" dy="10" stdDeviation="10" flood-color="#000" flood-opacity=".35"/>
    </filter>
    <filter id="inner" x="-20%" y="-20%" width="140%" height="140%">
      <feOffset dx="0" dy="1"/>
      <feGaussianBlur stdDeviation="2" result="b"/>
      <feComposite in="b" in2="SourceAlpha" operator="arithmetic" k2="-1" k3="1"/>
      <feColorMatrix type="matrix"
        values="0 0 0 0 0
                0 0 0 0 0
                0 0 0 0 0
                0 0 0 .55 0"/>
      <feComposite in2="SourceGraphic" operator="over"/>
    </filter>
  </defs>

  <g filter="url(#shadow)">
    <rect x="12" y="18" width="216" height="124" rx="26" fill="url(#wood)"/>
    <rect x="12" y="18" width="216" height="124" rx="26" fill="url(#woodGrain)" opacity=".55"/>
    <rect x="18" y="24" width="204" height="112" rx="22" fill="none" stroke="#ffffff" stroke-opacity=".10"/>

    <rect x="26" y="30" width="188" height="44" rx="18" fill="url(#cush)" filter="url(#inner)"/>
    <path d="M40 52h160" stroke="#ffffff" stroke-opacity=".16" stroke-width="2" stroke-linecap="round" stroke-dasharray="4 6"/>

    <rect x="26" y="76" width="188" height="54" rx="20" fill="url(#seat)" filter="url(#inner)"/>
    <rect x="34" y="84" width="172" height="14" rx="7" fill="#ffffff" opacity=".10"/>
    <path d="M40 112h160" stroke="#ffffff" stroke-opacity=".10" stroke-width="2" stroke-linecap="round" stroke-dasharray="5 7"/>
  </g>
</svg>
