<?xml version="1.0" encoding="UTF-8"?>
<svg viewBox="495.36 238.85 543.74 545.28" version="1.1" xmlns="http://www.w3.org/2000/svg" width="544" height="545">

<path d="M0 0 C178.2 0 356.4 0 540 0 C540 86.79 540 173.58 540 263 C382.59 263 225.18 263 63 263 C63.0395831 349.62634588 63.0395831 349.62634588 63.09008789 436.25268555 C63.09460449 453.01525879 63.09460449 453.01525879 63.09544373 460.86506653 C63.09637454 466.34199967 63.10003545 471.81892287 63.10557556 477.29585266 C63.11196277 483.6196268 63.11483084 489.94339113 63.11344495 496.26716851 C63.11284524 499.49866898 63.11432987 502.73014328 63.11921513 505.96164072 C63.12421815 509.4332002 63.12297926 512.90470565 63.12025452 516.37626648 C63.12462351 517.86568363 63.12462351 517.86568363 63.12908077 519.38519001 C63.11378025 526.68067312 62.56393601 533.6688319 62 541 C41.54 541 21.08 541 0 541 C0 362.47 0 183.94 0 0 Z " fill="#B3B0AB" transform="translate(497,241)"/>
<path d="M0 0 C1.32 0 2.64 0 4 0 C4.33 10.89 4.66 21.78 5 33 C4.01 33 3.02 33 2 33 C1.505 126.555 1.505 126.555 1 222 C-49.82660426 222.04030303 -49.82660426 222.04030303 -71.0625 222.04882812 C-85.74772489 222.05477066 -100.43294406 222.06177107 -115.11816406 222.07543945 C-125.81148712 222.08538763 -136.50480555 222.09185375 -147.19813311 222.09408849 C-152.86335041 222.09539537 -158.52855448 222.0984798 -164.19376755 222.10573006 C-169.52061386 222.11249236 -174.84744142 222.11461652 -180.17429161 222.11310768 C-182.13432225 222.11338391 -184.09435348 222.11538779 -186.05438042 222.11920547 C-188.72055233 222.12414599 -191.38665251 222.12299694 -194.05282593 222.12025452 C-195.22888116 222.12462378 -195.22888116 222.12462378 -196.42869508 222.12908131 C-201.77175758 222.11412121 -201.77175758 222.11412121 -204 221 C-204 213.41 -204 205.82 -204 198 C-203.34 198 -202.68 198 -202 198 C-202 197.34 -202 196.68 -202 196 C-202.66 196 -203.32 196 -204 196 C-204 189.4 -204 182.8 -204 176 C-203.34 176 -202.68 176 -202 176 C-202.66 175.34 -203.32 174.68 -204 174 C-204.23046875 171.46875 -204.23046875 171.46875 -204.1875 168.5 C-204.18105469 167.5203125 -204.17460938 166.540625 -204.16796875 165.53125 C-204 163 -204 163 -203 161 C-203.29299023 159.32577014 -203.62690101 157.65821773 -204 156 C-204 153.47717345 -203.84805104 150.84805104 -202 149 C-202.66 148.67 -203.32 148.34 -204 148 C-204 140 -204 132 -204 124 C-203.34 124 -202.68 124 -202 124 C-202 123.34 -202 122.68 -202 122 C-202.66 122 -203.32 122 -204 122 C-204 96 -204 96 -201 93 C-201.99 92.67 -202.98 92.34 -204 92 C-204.07401212 85.91278769 -204.12853646 79.82583574 -204.16479492 73.73828125 C-204.17990586 71.66629476 -204.20039541 69.59434037 -204.22631836 67.52246094 C-204.26260051 64.54874767 -204.27970298 61.57545627 -204.29296875 58.6015625 C-204.30845261 57.67131256 -204.32393646 56.74106262 -204.33988953 55.78262329 C-204.34011612 54.92188202 -204.34034271 54.06114075 -204.34057617 53.17431641 C-204.34723801 52.41486725 -204.35389984 51.65541809 -204.36076355 50.87295532 C-204.24171158 50.25488007 -204.12265961 49.63680481 -204 49 C-203.01 48.34 -202.02 47.68 -201 47 C-201.99 46.34 -202.98 45.68 -204 45 C-204 41.04 -204 37.08 -204 33 C-136.35 33 -68.7 33 1 33 C0.67 30.69 0.34 28.38 0 26 C-0.07574302 23.8774036 -0.10822302 21.75282735 -0.09765625 19.62890625 C-0.09443359 18.47841797 -0.09121094 17.32792969 -0.08789062 16.14257812 C-0.07951172 14.96115234 -0.07113281 13.77972656 -0.0625 12.5625 C-0.05798828 11.35400391 -0.05347656 10.14550781 -0.04882812 8.90039062 C-0.03710145 5.93354211 -0.02068896 2.9667973 0 0 Z " fill="#AFACA7" transform="translate(764,262)"/>
<path d="M0 0 C178.2 0 356.4 0 540 0 C540 86.79 540 173.58 540 263 C382.59 263 225.18 263 63 263 C63.0395831 349.62634588 63.0395831 349.62634588 63.09008789 436.25268555 C63.09460449 453.01525879 63.09460449 453.01525879 63.09544373 460.86506653 C63.09637454 466.34199967 63.10003545 471.81892287 63.10557556 477.29585266 C63.11196277 483.6196268 63.11483084 489.94339113 63.11344495 496.26716851 C63.11284524 499.49866898 63.11432987 502.73014328 63.11921513 505.96164072 C63.12421815 509.4332002 63.12297926 512.90470565 63.12025452 516.37626648 C63.12462351 517.86568363 63.12462351 517.86568363 63.12908077 519.38519001 C63.11378025 526.68067312 62.56393601 533.6688319 62 541 C41.54 541 21.08 541 0 541 C0 362.47 0 183.94 0 0 Z M25 20 C25 187.64 25 355.28 25 528 C43.63368119 530.18431659 43.63368119 530.18431659 61 527 C61.33 434.6 61.66 342.2 62 247 C211.49 246.67 360.98 246.34 515 246 C515 171.42 515 96.84 515 20 C353.3 20 191.6 20 25 20 Z " fill="#574734" transform="translate(497,241)"/>
<path d="M0 0 C161.7 0 323.4 0 490 0 C490 74.58 490 149.16 490 226 C340.51 226.33 191.02 226.66 37 227 C36.67 319.4 36.34 411.8 36 507 C25.26273364 512.36863318 12.00462874 508 0 508 C0 340.36 0 172.72 0 0 Z M242 1 C241.97079857 5.18748519 241.95313354 9.37494391 241.9375 13.5625 C241.92912109 14.74392578 241.92074219 15.92535156 241.91210938 17.14257812 C241.90888672 18.29306641 241.90566406 19.44355469 241.90234375 20.62890625 C241.89710693 21.68150635 241.89187012 22.73410645 241.88647461 23.81860352 C242.00822405 27.23046789 242.51718241 30.62027684 243 34 C175.35 34 107.7 34 38 34 C38 37.96 38 41.92 38 46 C38.99 46.66 39.98 47.32 41 48 C40.01 48.66 39.02 49.32 38 50 C37.56389841 51.93172172 37.56389841 51.93172172 37.65942383 54.17431641 C37.65965042 55.03505768 37.65987701 55.89579895 37.66011047 56.78262329 C37.67559433 57.71287323 37.69107819 58.64312317 37.70703125 59.6015625 C37.71127609 60.55316254 37.71552094 61.50476257 37.71989441 62.48519897 C37.73672104 65.53208414 37.77438046 68.57831391 37.8125 71.625 C37.82754169 73.68749046 37.84123099 75.74999127 37.85351562 77.8125 C37.88663761 82.8752535 37.93844716 87.93751554 38 93 C38.99 93.33 39.98 93.66 41 94 C40.484375 94.5775 39.96875 95.155 39.4375 95.75 C37.72565997 97.87311267 37.72565997 97.87311267 38.375 100.1875 C38.58125 100.785625 38.7875 101.38375 39 102 C38.505 102.495 38.505 102.495 38 103 C37.91330568 104.4887186 37.89296506 105.981445 37.90234375 107.47265625 C37.90556641 108.37177734 37.90878906 109.27089844 37.91210938 110.19726562 C37.92048828 111.14279297 37.92886719 112.08832031 37.9375 113.0625 C37.94201172 114.01189453 37.94652344 114.96128906 37.95117188 115.93945312 C37.9629989 118.29303065 37.97947975 120.64648477 38 123 C38.66 123 39.32 123 40 123 C40 123.66 40 124.32 40 125 C39.01 125.495 39.01 125.495 38 126 C38.2784375 126.9590625 38.2784375 126.9590625 38.5625 127.9375 C38.7790625 128.9584375 38.7790625 128.9584375 39 130 C38.67 130.33 38.34 130.66 38 131 C37.91368126 132.34267413 37.89293527 133.68974322 37.90234375 135.03515625 C37.90556641 135.84404297 37.90878906 136.65292969 37.91210938 137.48632812 C37.92048828 138.33646484 37.92886719 139.18660156 37.9375 140.0625 C37.94201172 140.91650391 37.94652344 141.77050781 37.95117188 142.65039062 C37.96299627 144.76695663 37.98093231 146.88348685 38 149 C38.66 149.33 39.32 149.66 40 150 C39.01 150.99 39.01 150.99 38 152 C38.31229724 153.33841672 38.64830932 154.67139075 39 156 C38.67619874 157.33568021 38.34342449 158.66923011 38 160 C38.33 160.99 38.66 161.98 39 163 C38.67 163.33 38.34 163.66 38 164 C37.87512242 165.80927281 37.82429154 167.62396107 37.8125 169.4375 C37.79832031 170.42621094 37.78414062 171.41492188 37.76953125 172.43359375 C37.73849247 175.16584415 37.73849247 175.16584415 40 177 C39.34 177 38.68 177 38 177 C38 183.6 38 190.2 38 197 C38.66 197 39.32 197 40 197 C40 197.66 40 198.32 40 199 C39.34 199 38.68 199 38 199 C38 206.59 38 214.18 38 222 C41.14195495 223.57097747 44.49824005 223.13306794 47.94717407 223.12025452 C49.19317904 223.12153615 49.19317904 223.12153615 50.46435583 223.12284368 C53.2635309 223.12449822 56.0626468 223.11897753 58.86181641 223.11352539 C60.86208596 223.11324349 62.86235562 223.11340131 64.86262512 223.1139679 C70.30655695 223.11425575 75.75046691 223.108361 81.19439363 223.10139394 C86.87856722 223.09515836 92.56274125 223.09455644 98.24691772 223.09336853 C109.01685163 223.09025582 119.78677543 223.08204324 130.55670488 223.07201904 C145.10578001 223.05877025 159.65485789 223.05335751 174.20393753 223.04751682 C197.13596593 223.03810331 220.067973 223.01818399 243 223 C243.33 160.63 243.66 98.26 244 34 C244.99 34 245.98 34 247 34 C246.67 23.11 246.34 12.22 246 1 C244.68 1 243.36 1 242 1 Z M248 34 C248 96.37 248 158.74 248 223 C327.2 223 406.4 223 488 223 C488 160.63 488 98.26 488 34 C408.8 34 329.6 34 248 34 Z " fill="#A09C96" transform="translate(522,261)"/>
<path d="M0 0 C169.29 0 338.58 0 513 0 C513 84.81 513 169.62 513 257 C506.73 257 500.46 257 494 257 C494 176.81 494 96.62 494 14 C330.98 14 167.96 14 0 14 C0 9.38 0 4.76 0 0 Z " fill="#CE9047" transform="translate(521,244)"/>
<path d="M0 0 C80.52 0 161.04 0 244 0 C244 10.89 244 21.78 244 33 C163.81 33 83.62 33 1 33 C-1.66911652 22.32353391 0 11.00504935 0 0 Z " fill="#DDD9D5" transform="translate(768,262)"/>
<path d="M0 0 C5.94 0 11.88 0 18 0 C18 141.57 18 283.14 18 429 C12.06 429 6.12 429 0 429 C0 287.43 0 145.86 0 0 Z " fill="#D5984F" transform="translate(501,244)"/>
<path d="M0 0 C10.23 0 20.46 0 31 0 C33.25 9 33.25 9 33.24609566 12.49829102 C33.25007775 13.29798341 33.25405985 14.0976758 33.25816262 14.9216013 C33.24942409 16.19984225 33.24942409 16.19984225 33.24050903 17.50390625 C33.24221788 18.42954093 33.24392673 19.35517561 33.24568737 20.30885983 C33.24896722 23.39348669 33.23800339 26.47789336 33.22705078 29.5625 C33.22648634 31.78040054 33.22680387 33.99830146 33.22793579 36.21620178 C33.22850903 42.22589982 33.21675933 48.23551783 33.20278788 54.2451973 C33.19027573 60.5299158 33.18910963 66.81463619 33.18673706 73.09936523 C33.18122942 83.64421953 33.16874147 94.18904764 33.15087891 104.73388672 C33.13250438 115.59228367 33.11835558 126.45067266 33.10986328 137.30908203 C33.10907511 138.31404036 33.10907511 138.31404036 33.10827102 139.33930087 C33.10566083 142.70055178 33.10313344 146.06180274 33.10064721 149.42305374 C33.07974853 177.28205692 33.04417194 205.14102484 33 233 C22.11 233 11.22 233 0 233 C0 156.11 0 79.22 0 0 Z " fill="#D7D4CF" transform="translate(522,262)"/>
<path d="M0 0 C68.31 0 136.62 0 207 0 C207.33 10.89 207.66 21.78 208 33 C139.69 33 71.38 33 1 33 C0.67 22.11 0.34 11.22 0 0 Z " fill="#DCD8D4" transform="translate(557,262)"/>
<path d="M0 0 C11.55 0 23.1 0 35 0 C35 57.09 35 114.18 35 173 C23.45 173 11.9 173 0 173 C0 115.91 0 58.82 0 0 Z " fill="#DFDCD8" transform="translate(522,500)"/>
<path d="M0 0 C148.83 0 297.66 0 451 0 C451 3.63 451 7.26 451 11 C302.17 11 153.34 11 0 11 C0 7.37 0 3.74 0 0 Z " fill="#92602C" transform="translate(561,490)"/>
<path d="M0 0 C0.33 0 0.66 0 1 0 C1 11.88 1 23.76 1 36 C6.94 36 12.88 36 19 36 C19 103.98 19 171.96 19 242 C12.73 242 6.46 242 0 242 C0 162.14 0 82.28 0 0 Z " fill="#9D6A34" transform="translate(1015,259)"/>
<path d="M0 0 C0.33 0 0.66 0 1 0 C1 85.14 1 170.28 1 258 C-156.41 258 -313.82 258 -476 258 C-476 257.34 -476 256.68 -476 256 C-326.51 255.67 -177.02 255.34 -23 255 C-23 176.13 -23 97.26 -23 16 C-184.7 16 -346.4 16 -513 16 C-513.33 182.32 -513.66 348.64 -514 520 C-514.33 520 -514.66 520 -515 520 C-515 352.69 -515 185.38 -515 13 C-351.65 13 -188.3 13 -20 13 C-20 92.86 -20 172.72 -20 255 C-13.73 255 -7.46 255 -1 255 C-1.00222061 251.87908401 -1.00444122 248.75816803 -1.00672913 245.54267883 C-1.02662278 216.93170669 -1.04155438 188.32073642 -1.05106533 159.70975908 C-1.05231606 155.96088429 -1.05361038 152.21200952 -1.05493164 148.46313477 C-1.05519395 147.71679262 -1.05545626 146.97045048 -1.05572652 146.20149191 C-1.06007934 134.11246275 -1.06796477 122.02343833 -1.0771528 109.93441198 C-1.0865001 97.53250204 -1.0920579 85.13059459 -1.09408849 72.72868127 C-1.09546148 65.0743557 -1.09979997 57.42004355 -1.10791647 49.76572212 C-1.11382091 43.89911322 -1.11445622 38.03251124 -1.11310768 32.16589928 C-1.1133834 29.75722547 -1.1153806 27.34855116 -1.11920547 24.93988037 C-1.12416356 21.65731449 -1.12299039 18.37480654 -1.12025452 15.09223938 C-1.12316736 14.13406651 -1.1260802 13.17589365 -1.12908131 12.18868524 C-1.11960878 7.99820912 -1.07592131 4.0836848 0 0 Z " fill="#2D1E11" transform="translate(1035,246)"/>
<path d="M0 0 C11.55 0 23.1 0 35 0 C35 31.02 35 62.04 35 94 C23.45 94 11.9 94 0 94 C0 62.98 0 31.96 0 0 Z " fill="#A9A5A0" transform="translate(522,673)"/>
<path d="M0 0 C0.33 0 0.66 0 1 0 C1.02278993 30.43016386 1.04049795 60.86032684 1.05106533 91.29049727 C1.05231611 94.87929312 1.05361042 98.46808894 1.05493164 102.05688477 C1.05532511 103.1286267 1.05532511 103.1286267 1.05572652 104.22201998 C1.06008331 115.80612918 1.0679709 127.39023345 1.0771528 138.97433972 C1.0864891 150.85190458 1.09205556 162.72946684 1.09408849 174.60703522 C1.09534006 181.28217621 1.09848476 187.95730734 1.10573006 194.63244438 C1.11248609 200.9072829 1.11461782 207.18210551 1.11310768 213.45694733 C1.1133842 215.76732278 1.11539178 218.07769874 1.11920547 220.38807106 C1.12413621 223.52752774 1.12300059 226.66692331 1.12025452 229.80638123 C1.12462378 231.19691693 1.12462378 231.19691693 1.12908131 232.61554426 C1.11412121 238.88587879 1.11412121 238.88587879 0 240 C-2.40862615 240.09876619 -4.78857126 240.13178764 -7.19771671 240.12304783 C-7.96370384 240.12420167 -8.72969096 240.12535552 -9.51888981 240.12654433 C-12.11857647 240.12921818 -14.71820276 240.12468256 -17.31788635 240.12025452 C-19.18728412 240.12069006 -21.05668183 240.12156466 -22.92607921 240.12284368 C-28.08874052 240.12509193 -33.25138129 240.12106289 -38.41403997 240.11606562 C-43.97167486 240.111766 -49.5293085 240.1132072 -55.08694458 240.1139679 C-64.72446024 240.11449344 -74.36196915 240.11134345 -83.99948311 240.10573006 C-97.93388521 240.09761919 -111.86828403 240.09500026 -125.80268823 240.09374207 C-148.40776748 240.09155089 -171.01284284 240.0848976 -193.61791992 240.07543945 C-215.58276348 240.06625977 -237.54760608 240.05917383 -259.51245117 240.05493164 C-260.18912697 240.05480011 -260.86580278 240.05466859 -261.5629839 240.05453308 C-268.35824444 240.05321459 -275.15350499 240.05193877 -281.94876554 240.05069422 C-338.96584622 240.04024751 -395.98292293 240.02259609 -453 240 C-452.67 240.66 -452.34 241.32 -452 242 C-451.90707997 243.43311396 -451.87626106 244.87048901 -451.87695217 246.30661201 C-451.87496112 247.21627696 -451.87297007 248.12594191 -451.87091869 249.06317246 C-451.87383153 250.06899333 -451.87674437 251.07481421 -451.87974548 252.1111145 C-451.87889106 253.17454697 -451.87803663 254.23797943 -451.87715632 255.33363712 C-451.87550056 258.92052096 -451.88102448 262.5073587 -451.88647461 266.09423828 C-451.88675649 268.65607706 -451.88659874 271.21791591 -451.8860321 273.77975464 C-451.8858039 279.30730915 -451.88865239 284.83484863 -451.89426994 290.36240005 C-451.90238677 298.3543721 -451.90500035 306.34633844 -451.90625793 314.33831416 C-451.90844817 327.30383377 -451.91510748 340.26934709 -451.92456055 353.23486328 C-451.93373541 365.83186817 -451.94081588 378.42887135 -451.94506836 391.02587891 C-451.94533108 391.80197231 -451.94559381 392.57806571 -451.94586449 393.3776771 C-451.9471695 397.27099434 -451.94843322 401.1643116 -451.94967639 405.05762887 C-451.96004811 437.37175715 -451.97766565 469.6858777 -452 502 C-452.66 502 -453.32 502 -454 502 C-454.02286524 466.85625437 -454.04049765 431.71251023 -454.05106533 396.56875873 C-454.05231611 392.42417573 -454.05361042 388.27959274 -454.05493164 384.13500977 C-454.05519395 383.3098624 -454.05545626 382.48471503 -454.05572652 381.6345632 C-454.06008345 368.25599326 -454.06797112 354.87742759 -454.0771528 341.49886019 C-454.08648871 327.7816351 -454.09205548 314.06441226 -454.09408849 300.34718412 C-454.09546385 291.87597574 -454.09981513 283.40477945 -454.10791647 274.93357479 C-454.11318316 269.13259484 -454.11480447 263.33162117 -454.11350138 257.530639 C-454.11285788 254.17868602 -454.11441527 250.8267714 -454.11920547 247.47481918 C-454.12413523 243.84928945 -454.12300095 240.22381266 -454.12025452 236.59828186 C-454.12316736 235.52729297 -454.1260802 234.45630408 -454.12908131 233.35286099 C-454.12709026 232.38945276 -454.12509921 231.42604453 -454.12304783 230.43344212 C-454.12342755 229.59539935 -454.12380727 228.75735658 -454.1241985 227.89391857 C-454 226 -454 226 -453 225 C-450.59137385 224.90123381 -448.21142874 224.86821236 -445.80228329 224.87695217 C-445.03629616 224.87579833 -444.27030904 224.87464448 -443.48111019 224.87345567 C-440.88142353 224.87078182 -438.28179724 224.87531744 -435.68211365 224.87974548 C-433.81271588 224.87930994 -431.94331817 224.87843534 -430.07392079 224.87715632 C-424.91125948 224.87490807 -419.74861871 224.87893711 -414.58596003 224.88393438 C-409.02832514 224.888234 -403.4706915 224.8867928 -397.91305542 224.8860321 C-388.27553976 224.88550656 -378.63803085 224.88865655 -369.00051689 224.89426994 C-355.06611479 224.90238081 -341.13171597 224.90499974 -327.19731177 224.90625793 C-304.59223252 224.90844911 -281.98715716 224.9151024 -259.38208008 224.92456055 C-237.41723651 224.93374023 -215.45239392 224.94080927 -193.48754883 224.94506836 C-192.1070833 224.945339 -190.72661777 224.94560971 -189.34615225 224.94588047 C-178.6587132 224.94796595 -167.97127413 224.94991674 -157.28383505 224.95183504 C-104.85588673 224.96127673 -52.42794742 224.98139313 0 225 C0 150.75 0 76.5 0 0 Z M-451 228 C-451 231.63 -451 235.26 -451 239 C-302.17 239 -153.34 239 0 239 C0 235.37 0 231.74 0 228 C-148.83 228 -297.66 228 -451 228 Z " fill="#423324" transform="translate(1012,262)"/>
<path d="M0 0 C176.88 0 353.76 0 536 0 C536 0.66 536 1.32 536 2 C359.78 2 183.56 2 2 2 C2 178.88 2 355.76 2 538 C20.48 538 38.96 538 58 538 C58.66 538.66 59.32 539.32 60 540 C40.2 540 20.4 540 0 540 C0 361.8 0 183.6 0 0 Z " fill="#251A0C" transform="translate(498,241)"/>
<path d="M0 0 C161.7 0 323.4 0 490 0 C490 0.33 490 0.66 490 1 C339.85 1 189.7 1 35 1 C35.495 2.485 35.495 2.485 36 4 C36.08378628 6.2838517 36.10729915 8.570101 36.09765625 10.85546875 C36.0962413 11.51710526 36.09482635 12.17874176 36.09336853 12.86042786 C36.08777996 14.96949828 36.07522965 17.07846177 36.0625 19.1875 C36.05748352 20.61913909 36.05292087 22.05077985 36.04882812 23.48242188 C36.0378143 26.98831588 36.02055755 30.4941475 36 34 C36.66 34 37.32 34 38 34 C38.05607422 35.24716797 38.05607422 35.24716797 38.11328125 36.51953125 C38.21189453 38.14955078 38.21189453 38.14955078 38.3125 39.8125 C38.37050781 40.89144531 38.42851563 41.97039062 38.48828125 43.08203125 C39.03068507 46.17497517 39.55289624 47.13022903 42 49 C41.01 49.33 40.02 49.66 39 50 C39.00523682 50.9472998 39.01047363 51.89459961 39.01586914 52.87060547 C39.03304809 56.4303449 39.04551626 59.99003941 39.05493164 63.54980469 C39.05991896 65.08203838 39.06671122 66.61426742 39.07543945 68.14648438 C39.12174177 76.49179593 39.04734171 84.70373415 38 93 C39.32 93.33 40.64 93.66 42 94 C41.484375 94.5775 40.96875 95.155 40.4375 95.75 C38.72565997 97.87311267 38.72565997 97.87311267 39.375 100.1875 C39.58125 100.785625 39.7875 101.38375 40 102 C39.67 102.33 39.34 102.66 39 103 C38.93958389 106.34176599 38.9796655 109.66868425 39.0390625 113.00976562 C39.11239237 119.68889459 39.11239237 119.68889459 38 123 C38.66 123 39.32 123 40 123 C39.835 123.763125 39.67 124.52625 39.5 125.3125 C38.90854604 128.03596236 38.90854604 128.03596236 39 131 C38.84872598 132.56406528 38.68097478 134.12659252 38.5 135.6875 C38.4071875 136.49574219 38.314375 137.30398438 38.21875 138.13671875 C38.1465625 138.75160156 38.074375 139.36648438 38 140 C38.66 140.33 39.32 140.66 40 141 C39.34 141 38.68 141 38 141 C38 143.64 38 146.28 38 149 C38.99 149.33 39.98 149.66 41 150 C40.34 150.66 39.68 151.32 39 152 C39.32041397 154.60280568 39.32041397 154.60280568 40 157 C39.34 157 38.68 157 38 157 C38.66 158.98 39.32 160.96 40 163 C39.67 163.33 39.34 163.66 39 164 C38.90113647 165.62252492 38.87028833 167.24947273 38.875 168.875 C38.87242187 169.75929688 38.86984375 170.64359375 38.8671875 171.5546875 C38.89951415 174.13906291 38.89951415 174.13906291 40 177 C39.34 177 38.68 177 38 177 C38.08378906 177.89203125 38.16757812 178.7840625 38.25390625 179.703125 C38.40666016 181.45882812 38.40666016 181.45882812 38.5625 183.25 C38.71912109 184.99023438 38.71912109 184.99023438 38.87890625 186.765625 C38.98198087 189.51871477 38.86213473 191.419982 38 194 C38.66 194.33 39.32 194.66 40 195 C39.34 195 38.68 195 38 195 C38 195.66 38 196.32 38 197 C38.66 197 39.32 197 40 197 C40 197.66 40 198.32 40 199 C39.34 199 38.68 199 38 199 C38 203.62 38 208.24 38 213 C38.66 213.33 39.32 213.66 40 214 C39.34 214 38.68 214 38 214 C38 216.64 38 219.28 38 222 C38.66 222 39.32 222 40 222 C40 222.66 40 223.32 40 224 C39.51293569 224.4384461 39.02587139 224.8768922 38.52404755 225.32862455 C36.50403349 227.54391102 36.62187348 228.7738032 36.61523914 231.74200726 C36.6057826 232.72333116 36.59632606 233.70465507 36.58658296 234.71571606 C36.59143053 235.79644306 36.59627811 236.87717006 36.60127258 237.99064636 C36.59462576 239.1366043 36.58797893 240.28256223 36.58113068 241.46324617 C36.56567242 244.64900476 36.5636685 247.83445012 36.56726015 251.02023399 C36.56788257 254.45378975 36.55127738 257.88726652 36.53674316 261.32078552 C36.51392268 267.27121243 36.50206613 273.22158067 36.49761391 279.17204857 C36.49116093 287.77545539 36.46823865 296.37875599 36.44127061 304.98212007 C36.3979674 318.93980666 36.36802086 332.89748879 36.34643555 346.85522461 C36.32543643 360.41546829 36.29817069 373.97567543 36.26245117 387.53588867 C36.26025235 388.37145926 36.25805352 389.20702985 36.25578807 390.06792077 C36.24471868 394.25964909 36.23352582 398.45137708 36.22227156 402.64310491 C36.12903644 437.42870542 36.05746168 472.2143227 36 507 C32.93405406 508.53297297 29.72888147 508.12131455 26.3671875 508.09765625 C25.23943405 508.09553383 25.23943405 508.09553383 24.08889771 508.09336853 C21.6842249 508.08776465 19.27964473 508.07521157 16.875 508.0625 C15.24609509 508.0574855 13.61718873 508.0529225 11.98828125 508.04882812 C7.99215173 508.03779397 3.99609158 508.02052679 0 508 C0 507.34 0 506.68 0 506 C4.3329062 505.80161839 8.66632554 505.61825573 13 505.4375 C14.22074219 505.38142578 15.44148437 505.32535156 16.69921875 505.26757812 C17.89160156 505.21923828 19.08398438 505.17089844 20.3125 505.12109375 C21.40175781 505.0739624 22.49101563 505.02683105 23.61328125 504.97827148 C27.42402503 505.00272046 31.21860543 505.52732568 35 506 C35 417.89 35 329.78 35 239 C23.45 239 11.9 239 0 239 C0 237.35 0 235.7 0 234 C10.89 234 21.78 234 33 234 C32.89502288 205.4724816 32.78549644 176.94498522 32.66888306 148.41751182 C32.65511382 145.04803537 32.64138667 141.67855876 32.62768555 138.30908203 C32.62495724 137.63829219 32.62222894 136.96750235 32.61941796 136.27638555 C32.57536727 125.42126824 32.53472524 114.56614072 32.49534739 103.71100557 C32.45485296 92.56902942 32.41061288 81.42707161 32.36312145 70.28512287 C32.33657119 64.02839573 32.31171942 57.77167223 32.29092598 51.5149231 C32.27129805 45.62498808 32.24713601 39.735089 32.21950912 33.84518623 C32.21017124 31.68450132 32.20248435 29.52380853 32.19658089 27.3631115 C32.18826406 24.41000389 32.17397214 21.45698222 32.15821838 18.50390625 C32.15724028 17.65174562 32.15626217 16.79958498 32.15525442 15.9216013 C32.14977998 15.1219089 32.14430554 14.32221651 32.1386652 13.49829102 C32.13600716 12.81783218 32.13334911 12.13737335 32.13061053 11.43629456 C31.94329062 7.94219277 31.43401234 4.47209869 31 1 C20.77 1 10.54 1 0 1 C0 0.67 0 0.34 0 0 Z " fill="#7E7973" transform="translate(522,261)"/>
<path d="M0 0 C5.94 0 11.88 0 18 0 C18 34.65 18 69.3 18 105 C12.06 105 6.12 105 0 105 C0 70.35 0 35.7 0 0 Z " fill="#875B2A" transform="translate(501,673)"/>
<path d="M0 0 C0.99 0 1.98 0 3 0 C3 86.79 3 173.58 3 263 C2.67 263 2.34 263 2 263 C1.67 179.51 1.34 96.02 1 10 C0.67 10 0.34 10 0 10 C0 7.69 0 5.38 0 3 C-169.29 3 -338.58 3 -513 3 C-513 7.62 -513 12.24 -513 17 C-349.98 17 -186.96 17 -19 17 C-19 17.33 -19 17.66 -19 18 C-182.68 18 -346.36 18 -515 18 C-515 13.05 -515 8.1 -515 3 C-520.94 3 -526.88 3 -533 3 C-533 144.57 -533 286.14 -533 432 C-533.33 432 -533.66 432 -534 432 C-534 290.1 -534 148.2 -534 2 C-357.78 2 -181.56 2 0 2 C0 1.34 0 0.68 0 0 Z " fill="#88633A" transform="translate(1034,241)"/>
<path d="M0 0 C79.2 0 158.4 0 240 0 C240 1.98 240 3.96 240 6 C237.20320575 6.79182403 234.72541363 7.12458886 231.82210922 7.12304783 C230.5770409 7.1260344 230.5770409 7.1260344 229.30681968 7.12908131 C228.40020725 7.12616847 227.49359481 7.12325563 226.55950928 7.12025452 C225.59237322 7.12110894 224.62523716 7.12196337 223.62879395 7.12284368 C220.37978926 7.12449416 217.1308359 7.11898413 213.88183594 7.11352539 C211.55615236 7.1132434 209.23046869 7.11340149 206.90478516 7.1139679 C200.58290182 7.11425541 194.26103737 7.10836612 187.93915844 7.10139394 C182.00419892 7.09578477 176.06924014 7.09477133 170.13427833 7.09374207 C158.37890334 7.09155342 146.62353529 7.08489842 134.86816406 7.07543945 C123.44889358 7.06626049 112.02962499 7.05918202 100.61035156 7.05493164 C99.55453147 7.05453756 99.55453147 7.05453756 98.47738168 7.05413551 C94.94622341 7.05283047 91.41506513 7.05156676 87.88390684 7.05032361 C58.58926675 7.03995684 29.29463345 7.02226928 0 7 C0 4.69 0 2.38 0 0 Z " fill="#E2DFDB" transform="translate(769,288)"/>
<path d="M0 0 C67.98 0 135.96 0 206 0 C206 2.31 206 4.62 206 7 C138.02 7 70.04 7 0 7 C0 4.69 0 2.38 0 0 Z " fill="#E1DEDA" transform="translate(559,288)"/>
<path d="M0 0 C176.88 0 353.76 0 536 0 C536 0.66 536 1.32 536 2 C359.78 2 183.56 2 2 2 C1.34 3.32 0.68 4.64 0 6 C0 4.02 0 2.04 0 0 Z " fill="#2B2012" transform="translate(498,241)"/>
<path d="M0 0 C0.33 0 0.66 0 1 0 C1 67.98 1 135.96 1 206 C-5.27 206 -11.54 206 -18 206 C-18 151.55 -18 97.1 -18 41 C-17.67 41 -17.34 41 -17 41 C-17 84.89 -17 128.78 -17 174 C-11.39 174 -5.78 174 0 174 C0 116.58 0 59.16 0 0 Z " fill="#7C5429" transform="translate(1033,295)"/>
<path d="M0 0 C157.41 0 314.82 0 477 0 C477 0.33 477 0.66 477 1 C320.25 1.33 163.5 1.66 2 2 C2.33 4.97 2.66 7.94 3 11 C2.78417041 13.22765711 2.56665111 15.4561673 2.26813519 17.67425811 C1.78098955 21.89964543 1.84626424 26.13473067 1.84178162 30.38343811 C1.83684364 31.39159826 1.83190566 32.39975841 1.82681805 33.43846887 C1.81153362 36.79629865 1.80310712 40.15410945 1.79467773 43.51196289 C1.78509208 45.92705449 1.7750816 48.34214444 1.76467896 50.75723267 C1.74328 55.94633853 1.72482153 61.13544588 1.70907402 66.32457161 C1.686301 73.82705163 1.65816877 81.32950415 1.62875474 88.83196073 C1.58116957 101.00604432 1.53788099 113.1801392 1.49731445 125.35424805 C1.45791322 137.17587156 1.41647601 148.99748507 1.37231445 160.8190918 C1.36959018 161.5485412 1.36686591 162.27799061 1.36405908 163.02954454 C1.35037884 166.68920641 1.33665872 170.34886813 1.32291877 174.00852978 C1.20909666 204.33899909 1.10232791 234.66948961 1 265 C0.67 265 0.34 265 0 265 C0 177.55 0 90.1 0 0 Z " fill="#B2AAA7" transform="translate(560,504)"/>
<path d="M0 0 C0.66 0 1.32 0 2 0 C2.04667589 24.06918279 2.08196717 48.13835881 2.10362434 72.20757771 C2.11394644 83.38278527 2.12802458 94.55796475 2.15087891 105.7331543 C2.17078423 115.47098232 2.18370964 125.20879001 2.18817699 134.94663781 C2.19078922 140.10497217 2.19694842 145.26324835 2.21146011 150.4215641 C2.22499891 155.27320113 2.22923017 160.12475579 2.22621536 164.97640991 C2.22676719 166.76025527 2.23076662 168.54410329 2.23841095 170.32793236 C2.24831433 172.75736425 2.24598586 175.18648235 2.24050903 177.61592102 C2.24633472 178.32700793 2.2521604 179.03809484 2.25816262 179.77072984 C2.23584796 183.41541288 2.08291804 184.87562294 0 188 C-1.68080007 186.31919993 -1.12473128 184.25125258 -1.13374341 182.00738144 C-1.13151268 181.28726002 -1.12928196 180.5671386 -1.12698364 179.82519531 C-1.12854363 179.06550571 -1.13010362 178.30581612 -1.13171089 177.52310562 C-1.1357238 174.95809279 -1.13253013 172.39313835 -1.12939453 169.828125 C-1.13074844 167.99711065 -1.13252832 166.16609657 -1.13470459 164.33508301 C-1.13928012 159.34762408 -1.13748887 154.36018574 -1.1343255 149.37272644 C-1.13180252 144.1654759 -1.13413927 138.95822717 -1.13571167 133.75097656 C-1.13753355 125.00455406 -1.13512658 116.25813998 -1.13037109 107.51171875 C-1.12492844 97.3841751 -1.12669108 87.25665159 -1.1321975 77.12910843 C-1.13672812 68.45058647 -1.13737943 59.77207058 -1.13475883 51.09354782 C-1.13319577 45.90289734 -1.13300307 40.71225633 -1.13629532 35.52160645 C-1.13917329 30.64288892 -1.13719971 25.76419748 -1.13140106 20.88548279 C-1.13007306 19.08951358 -1.13046825 17.29354221 -1.13266373 15.49757385 C-1.13537368 13.05662065 -1.13199603 10.61575239 -1.12698364 8.17480469 C-1.12921436 7.45468327 -1.13144509 6.73456184 -1.13374341 5.99261856 C-1.11414986 1.11414986 -1.11414986 1.11414986 0 0 Z " fill="#8E8A85" transform="translate(767,296)"/>
<path d="M0 0 C1.32 0 2.64 0 4 0 C5.11911712 3.35735137 5.11365586 5.88205386 5.09765625 9.41796875 C5.09443359 10.67158203 5.09121094 11.92519531 5.08789062 13.21679688 C5.07532227 15.18229492 5.07532227 15.18229492 5.0625 17.1875 C5.05748317 18.52278481 5.05292059 19.85807141 5.04882812 21.19335938 C5.03702695 24.46228473 5.02056297 27.73111991 5 31 C4.67 31 4.34 31 4 31 C4 99.31 4 167.62 4 238 C-7.55 238 -19.1 238 -31 238 C-31 236.35 -31 234.7 -31 233 C-20.11 233 -9.22 233 2 233 C1.89502288 204.4724816 1.78549644 175.94498522 1.66888306 147.41751182 C1.65511382 144.04803537 1.64138667 140.67855876 1.62768555 137.30908203 C1.62495724 136.63829219 1.62222894 135.96750235 1.61941796 135.27638555 C1.57536727 124.42126824 1.53472524 113.56614072 1.49534739 102.71100557 C1.45485296 91.56902942 1.41061288 80.42707161 1.36312145 69.28512287 C1.33657119 63.02839573 1.31171942 56.77167223 1.29092598 50.5149231 C1.27129805 44.62498808 1.24713601 38.735089 1.21950912 32.84518623 C1.21017124 30.68450132 1.20248435 28.52380853 1.19658089 26.3631115 C1.18826406 23.41000389 1.17397214 20.45698222 1.15821838 17.50390625 C1.15724028 16.65174562 1.15626217 15.79958498 1.15525442 14.9216013 C1.12063901 9.86507269 0.72040296 5.00640657 0 0 Z " fill="#B6B2AD" transform="translate(553,262)"/>
<path d="M0 0 C1.32 0.33 2.64 0.66 4 1 C3.34 1 2.68 1 2 1 C2.185625 2.299375 2.37125 3.59875 2.5625 4.9375 C3.01360565 8.09523958 2.92884837 10.88745736 2.51745701 14.02901363 C1.92580183 19.15747373 1.8472238 24.22523939 1.84178162 29.38343811 C1.83684364 30.39159826 1.83190566 31.39975841 1.82681805 32.43846887 C1.81153362 35.79629865 1.80310712 39.15410945 1.79467773 42.51196289 C1.78509208 44.92705449 1.7750816 47.34214444 1.76467896 49.75723267 C1.74328 54.94633853 1.72482153 60.13544588 1.70907402 65.32457161 C1.686301 72.82705163 1.65816877 80.32950415 1.62875474 87.83196073 C1.58116957 100.00604432 1.53788099 112.1801392 1.49731445 124.35424805 C1.45791322 136.17587156 1.41647601 147.99748507 1.37231445 159.8190918 C1.36959018 160.5485412 1.36686591 161.27799061 1.36405908 162.02954454 C1.35037884 165.68920641 1.33665872 169.34886813 1.32291877 173.00852978 C1.20909666 203.33899909 1.10232791 233.66948961 1 264 C0.67 264 0.34 264 0 264 C0 176.88 0 89.76 0 0 Z " fill="#B7B3B0" transform="translate(560,505)"/>
<path d="M0 0 C0 2.64 0 5.28 0 8 C-11.55 8 -23.1 8 -35 8 C-35 5.69 -35 3.38 -35 1 C-30.33692578 0.85719857 -25.67383973 0.7147919 -21.01074219 0.57275391 C-19.42382479 0.5243604 -17.83691071 0.47585828 -16.25 0.42724609 C-13.97136275 0.35746283 -11.69271395 0.28806785 -9.4140625 0.21875 C-8.70255035 0.19687622 -7.99103821 0.17500244 -7.25796509 0.15246582 C-2.22774341 0 -2.22774341 0 0 0 Z " fill="#855928" transform="translate(557,770)"/>
<path d="M0 0 C0.33 0 0.66 0 1 0 C1 31.68 1 63.36 1 96 C12.88 95.67 24.76 95.34 37 95 C37 93.68 37 92.36 37 91 C37.66 91 38.32 91 39 91 C39 92.65 39 94.3 39 96 C38.34 96 37.68 96 37 96 C37 99.63 37 103.26 37 107 C24.46 106.67 11.92 106.34 -1 106 C-0.67 71.02 -0.34 36.04 0 0 Z M26.5859375 97.21875 C25.85629791 97.24094604 25.12665833 97.26314209 24.37490845 97.28601074 C22.04159688 97.35705674 19.70829842 97.42852355 17.375 97.5 C15.79427168 97.54820477 14.21354252 97.5963822 12.6328125 97.64453125 C8.75519858 97.76270338 4.87759636 97.88125295 1 98 C1 100.31 1 102.62 1 105 C12.55 105 24.1 105 36 105 C36 102.36 36 99.72 36 97 C32.8604432 97 29.72375855 97.12228502 26.5859375 97.21875 Z " fill="#483928" transform="translate(521,673)"/>
<path d="M0 0 C1.32 0 2.64 0 4 0 C5.11911712 3.35735137 5.11365586 5.88205386 5.09765625 9.41796875 C5.09443359 10.67158203 5.09121094 11.92519531 5.08789062 13.21679688 C5.07951172 14.52712891 5.07113281 15.83746094 5.0625 17.1875 C5.05748317 18.52278481 5.05292059 19.85807141 5.04882812 21.19335938 C5.03702695 24.46228473 5.02056297 27.73111991 5 31 C4.67 31 4.34 31 4 31 C3.67 61.69 3.34 92.38 3 124 C2.67 124 2.34 124 2 124 C1.99576806 123.4095414 1.99153612 122.81908279 1.98717594 122.21073151 C1.88371652 107.82075525 1.77505643 93.43082514 1.66066074 79.0409317 C1.60546354 72.08199179 1.55200434 65.12304676 1.50268555 58.1640625 C1.4550743 51.44671378 1.40255501 44.72941971 1.34705925 38.01213074 C1.32669874 35.45095557 1.30797547 32.88976685 1.29092598 30.3285675 C1.26674208 26.73787545 1.23670704 23.14727597 1.20532227 19.55664062 C1.1995668 18.50071716 1.19381134 17.4447937 1.18788147 16.35687256 C1.13294566 10.81751177 0.81462928 5.48090605 0 0 Z " fill="#AFABA7" transform="translate(553,262)"/>
<path d="M0 0 C0.33 0 0.66 0 1 0 C1 31.35 1 62.7 1 95 C-2.06594594 96.53297297 -5.27111853 96.12131455 -8.6328125 96.09765625 C-9.76056595 96.09553383 -9.76056595 96.09553383 -10.91110229 96.09336853 C-13.3157751 96.08776465 -15.72035527 96.07521157 -18.125 96.0625 C-19.75390491 96.0574855 -21.38281127 96.0529225 -23.01171875 96.04882812 C-27.00784827 96.03779397 -31.00390842 96.02052679 -35 96 C-35 95.34 -35 94.68 -35 94 C-30.6670938 93.80161839 -26.33367446 93.61825573 -22 93.4375 C-20.77925781 93.38142578 -19.55851563 93.32535156 -18.30078125 93.26757812 C-17.10839844 93.21923828 -15.91601562 93.17089844 -14.6875 93.12109375 C-13.05361328 93.05039673 -13.05361328 93.05039673 -11.38671875 92.97827148 C-7.57597497 93.00272046 -3.78139457 93.52732568 0 94 C0 62.98 0 31.96 0 0 Z " fill="#726E69" transform="translate(557,673)"/>
<path d="M0 0 C0.33 0 0.66 0 1 0 C1.02505615 0.65597168 1.0501123 1.31194336 1.07592773 1.98779297 C1.1917326 4.95040183 1.31452886 7.91268031 1.4375 10.875 C1.47681641 11.90753906 1.51613281 12.94007813 1.55664062 14.00390625 C1.59853516 14.99003906 1.64042969 15.97617187 1.68359375 16.9921875 C1.72025146 17.90339355 1.75690918 18.81459961 1.79467773 19.75341797 C1.86577065 22.03483481 1.86577065 22.03483481 3 24 C3.08949417 25.45037107 3.1175844 26.90478629 3.11352539 28.35791016 C3.11344986 29.25869293 3.11337433 30.15947571 3.11329651 31.08755493 C3.10813522 32.06155243 3.10297394 33.03554993 3.09765625 34.0390625 C3.0962413 35.03505463 3.09482635 36.03104675 3.09336853 37.05722046 C3.08775936 40.24651053 3.0752053 43.43573106 3.0625 46.625 C3.05748618 48.78385315 3.05292307 50.94270741 3.04882812 53.1015625 C3.03778695 58.4010655 3.02103988 63.70052778 3 69 C2.01 69 1.02 69 0 69 C0 46.23 0 23.46 0 0 Z " fill="#827E79" transform="translate(556,271)"/>
<path d="M0 0 C0.66 0.66 1.32 1.32 2 2 C1.625 4.125 1.625 4.125 1 6 C1.66 6 2.32 6 3 6 C2.835 6.763125 2.67 7.52625 2.5 8.3125 C1.90854604 11.03596236 1.90854604 11.03596236 2 14 C1.84872598 15.56406528 1.68097478 17.12659252 1.5 18.6875 C1.4071875 19.49574219 1.314375 20.30398438 1.21875 21.13671875 C1.1465625 21.75160156 1.074375 22.36648438 1 23 C1.66 23.33 2.32 23.66 3 24 C2.34 24 1.68 24 1 24 C1 26.64 1 29.28 1 32 C1.99 32.33 2.98 32.66 4 33 C3.34 33.66 2.68 34.32 2 35 C2.32041397 37.60280568 2.32041397 37.60280568 3 40 C2.34 40 1.68 40 1 40 C1.66 41.98 2.32 43.96 3 46 C2.505 46.495 2.505 46.495 2 47 C1.90113647 48.62252492 1.87028833 50.24947273 1.875 51.875 C1.87242187 52.75929688 1.86984375 53.64359375 1.8671875 54.5546875 C1.89951415 57.13906291 1.89951415 57.13906291 3 60 C2.34 60 1.68 60 1 60 C1.08378906 60.89203125 1.16757812 61.7840625 1.25390625 62.703125 C1.35574219 63.87359375 1.45757813 65.0440625 1.5625 66.25 C1.66691406 67.41015625 1.77132812 68.5703125 1.87890625 69.765625 C1.98198087 72.51871477 1.86213473 74.419982 1 77 C1.66 77.33 2.32 77.66 3 78 C2.34 78 1.68 78 1 78 C1 78.66 1 79.32 1 80 C1.66 80 2.32 80 3 80 C3 80.66 3 81.32 3 82 C2.34 82 1.68 82 1 82 C1 86.62 1 91.24 1 96 C1.66 96.33 2.32 96.66 3 97 C2.34 97 1.68 97 1 97 C1 99.64 1 102.28 1 105 C1.66 105.33 2.32 105.66 3 106 C2.01 106 1.02 106 0 106 C0 71.02 0 36.04 0 0 Z " fill="#999590" transform="translate(559,378)"/>
<path d="M0 0 C0.33 0 0.66 0 1 0 C1 1.98 1 3.96 1 6 C-10.55 6 -22.1 6 -34 6 C-34 4.68 -34 3.36 -34 2 C-22.78 2 -11.56 2 0 2 C0 1.34 0 0.68 0 0 Z " fill="#ADA9A4" transform="translate(556,494)"/>
<path d="M0 0 C1.32 0 2.64 0 4 0 C4.33 10.89 4.66 21.78 5 33 C3.68 33 2.36 33 1 33 C-0.26750669 26.20336964 -0.11139726 19.45701316 -0.0625 12.5625 C-0.05798828 11.35400391 -0.05347656 10.14550781 -0.04882812 8.90039062 C-0.03710145 5.93354211 -0.02068896 2.9667973 0 0 Z " fill="#B6B2AD" transform="translate(764,262)"/>
<path d="M0 0 C16.5 0 33 0 50 0 C49.01 0.33 48.02 0.66 47 1 C47 1.99 47 2.98 47 4 C45.66666667 4.66666667 44.33333333 5.33333333 43 6 C43.66 7.98 44.32 9.96 45 12 C39.25 10.25 39.25 10.25 37 8 C38.32 7.34 39.64 6.68 41 6 C40.34 6 39.68 6 39 6 C39 5.34 39 4.68 39 4 C38.34 4 37.68 4 37 4 C36.67 4.66 36.34 5.32 36 6 C36 4.35 36 2.7 36 1 C29.4 1 22.8 1 16 1 C15.67 1.66 15.34 2.32 15 3 C15 2.34 15 1.68 15 1 C10.71 1 6.42 1 2 1 C1.67 1.66 1.34 2.32 1 3 C0.67 2.01 0.34 1.02 0 0 Z " fill="#BDBAB5" transform="translate(714,295)"/>
<path d="M0 0 C3.375 -0.125 3.375 -0.125 7 0 C7.66 0.66 8.32 1.32 9 2 C10.98356483 2.71408334 12.98315437 3.38617742 15 4 C14.67 4.66 14.34 5.32 14 6 C13.34 6 12.68 6 12 6 C11.67 6.99 11.34 7.98 11 9 C10.01 9 9.02 9 8 9 C8 9.66 8 10.32 8 11 C2.25 11.125 2.25 11.125 0 10 C0 6.7 0 3.4 0 0 Z " fill="#A8A49F" transform="translate(560,473)"/>
<path d="M0 0 C2.31 0 4.62 0 7 0 C7 10.89 7 21.78 7 33 C4.69 33 2.38 33 0 33 C1.98 32.505 1.98 32.505 4 32 C3.99476318 31.12674072 3.98952637 30.25348145 3.98413086 29.35375977 C3.96712249 26.12410727 3.95456631 22.89447755 3.94506836 19.66479492 C3.9400292 18.26504772 3.93319784 16.8653058 3.92456055 15.46557617 C3.9124768 13.45754223 3.90730193 11.44947043 3.90234375 9.44140625 C3.89710693 8.23170166 3.89187012 7.02199707 3.88647461 5.77563477 C4 3 4 3 5 2 C3.35 1.67 1.7 1.34 0 1 C0 0.67 0 0.34 0 0 Z " fill="#CBC7C2" transform="translate(1005,262)"/>
<path d="M0 0 C1.32 0.33 2.64 0.66 4 1 C3.34 1 2.68 1 2 1 C2.185625 2.299375 2.37125 3.59875 2.5625 4.9375 C3.01228181 8.0859727 2.92328077 10.61724111 2.52734375 13.80273438 C1.7898526 20.18970875 1.76838571 26.58089612 1.68359375 33.00390625 C1.66281265 34.32293442 1.64203156 35.64196259 1.62062073 37.0009613 C1.5658911 40.47782612 1.51626907 43.95474505 1.46777344 47.43170166 C1.41719562 50.9916251 1.36170055 54.55147169 1.30664062 58.11132812 C1.19966146 65.07415192 1.09808733 72.03704541 1 79 C0.67 79 0.34 79 0 79 C0 52.93 0 26.86 0 0 Z " fill="#BEB9B8" transform="translate(560,505)"/>
<path d="M0 0 C0.33 0 0.66 0 1 0 C1.03738281 0.83144531 1.07476563 1.66289062 1.11328125 2.51953125 C1.17902344 3.60621094 1.24476563 4.69289063 1.3125 5.8125 C1.37050781 6.89144531 1.42851563 7.97039062 1.48828125 9.08203125 C2.03068507 12.17497517 2.55289624 13.13022903 5 15 C4.01 15.33 3.02 15.66 2 16 C2.00523682 16.9472998 2.01047363 17.89459961 2.01586914 18.87060547 C2.03304809 22.4303449 2.04551626 25.99003941 2.05493164 29.54980469 C2.05991896 31.08203838 2.06671122 32.61426742 2.07543945 34.14648438 C2.12174177 42.49179593 2.04734171 50.70373415 1 59 C2.32 59.33 3.64 59.66 5 60 C4.484375 60.5775 3.96875 61.155 3.4375 61.75 C2.963125 62.4925 2.48875 63.235 2 64 C2.30271961 65.34061543 2.63837971 66.67405895 3 68 C2.0625 70.75 2.0625 70.75 1 73 C0.67 73 0.34 73 0 73 C0 48.91 0 24.82 0 0 Z " fill="#95918C" transform="translate(559,295)"/>
<path d="M0 0 C16.5 0 33 0 50 0 C50 0.33 50 0.66 50 1 C45.05 1 40.1 1 35 1 C34.67 1.66 34.34 2.32 34 3 C34 2.34 34 1.68 34 1 C32.5199159 1.11362262 31.04089926 1.24122908 29.5625 1.375 C28.32693359 1.47941406 28.32693359 1.47941406 27.06640625 1.5859375 C26.38449219 1.72257812 25.70257812 1.85921875 25 2 C24.67 2.66 24.34 3.32 24 4 C24.99 4.33 25.98 4.66 27 5 C24.08517222 5.80967438 22.53886783 6.21845993 19.6875 5.0625 C19.130625 4.711875 18.57375 4.36125 18 4 C18 3.01 18 2.02 18 1 C17.01 1 16.02 1 15 1 C14.67 1.66 14.34 2.32 14 3 C14 2.34 14 1.68 14 1 C9.38 1 4.76 1 0 1 C0 0.67 0 0.34 0 0 Z " fill="#C1BDB8" transform="translate(812,295)"/>
<path d="M0 0 C1.32 0 2.64 0 4 0 C5.11911712 3.35735137 5.11365586 5.88205386 5.09765625 9.41796875 C5.09443359 10.67158203 5.09121094 11.92519531 5.08789062 13.21679688 C5.07951172 14.52712891 5.07113281 15.83746094 5.0625 17.1875 C5.05748317 18.52278481 5.05292059 19.85807141 5.04882812 21.19335938 C5.03702695 24.46228473 5.02056297 27.73111991 5 31 C4.01 31.33 3.02 31.66 2 32 C1.96241577 30.97229492 1.96241577 30.97229492 1.92407227 29.92382812 C1.80714393 26.7824065 1.68486126 23.64121452 1.5625 20.5 C1.52318359 19.42234375 1.48386719 18.3446875 1.44335938 17.234375 C1.21341951 11.43281536 0.83001269 5.74731473 0 0 Z " fill="#A09B96" transform="translate(553,262)"/>
<path d="M0 0 C17.49 0 34.98 0 53 0 C53 0.33 53 0.66 53 1 C47.67996536 1.16802516 42.35977627 1.32854056 37.03930664 1.48217773 C35.23032575 1.53546404 33.42140351 1.59078238 31.61254883 1.64819336 C29.0087549 1.73047869 26.40483582 1.80539339 23.80078125 1.87890625 C22.99538406 1.90594131 22.18998688 1.93297638 21.36018372 1.96083069 C17.41064025 2.06520997 13.85935123 2.00458135 10 1 C9.67 2.32 9.34 3.64 9 5 C6 5 6 5 3 4 C2.01 2.68 1.02 1.36 0 0 Z " fill="#C1BDB8" transform="translate(891,295)"/>
<path d="M0 0 C-0.33 0.66 -0.66 1.32 -1 2 C-12.22 2 -23.44 2 -35 2 C-35 1.34 -35 0.68 -35 0 C-23.22895232 -0.74306213 -11.75449536 -1.28410454 0 0 Z " fill="#7C776E" transform="translate(557,767)"/>
<path d="M0 0 C12.54 0 25.08 0 38 0 C37.34 1.65 36.68 3.3 36 5 C33 3 33 3 32 2 C31.01 2.495 31.01 2.495 30 3 C30 2.34 30 1.68 30 1 C29.01 1 28.02 1 27 1 C26.67 1.66 26.34 2.32 26 3 C26 2.34 26 1.68 26 1 C17.42 1 8.84 1 0 1 C0 0.67 0 0.34 0 0 Z " fill="#BEBAB5" transform="translate(960,295)"/>
<path d="M0 0 C0.33 0 0.66 0 1 0 C1 8.25 1 16.5 1 25 C1.99 24.67 2.98 24.34 4 24 C4.33 26.97 4.66 29.94 5 33 C3.68 33 2.36 33 1 33 C-0.26750669 26.20336964 -0.11139726 19.45701316 -0.0625 12.5625 C-0.05798828 11.35400391 -0.05347656 10.14550781 -0.04882812 8.90039062 C-0.03710145 5.93354211 -0.02068896 2.9667973 0 0 Z " fill="#BCB8B3" transform="translate(764,262)"/>
<path d="M0 0 C0.33 0 0.66 0 1 0 C1 7.59 1 15.18 1 23 C0.01 23 -0.98 23 -2 23 C-1.814375 22.195625 -1.62875 21.39125 -1.4375 20.5625 C-1.293125 19.716875 -1.14875 18.87125 -1 18 C-1.33 17.67 -1.66 17.34 -2 17 C-2.12619896 15.08647154 -2.17580701 13.16764977 -2.1875 11.25 C-2.20167969 10.20328125 -2.21585938 9.1565625 -2.23046875 8.078125 C-1.99844213 4.97919323 -1.31055867 2.79723986 0 0 Z " fill="#D79C52" transform="translate(1032,272)"/>
<path d="M0 0 C0.66 0 1.32 0 2 0 C1.67 3.3 1.34 6.6 1 10 C0.67 10 0.34 10 0 10 C0 7.69 0 5.38 0 3 C-9.57 3 -19.14 3 -29 3 C-29 2.67 -29 2.34 -29 2 C-19.43 2 -9.86 2 0 2 C0 1.34 0 0.68 0 0 Z " fill="#7D592D" transform="translate(1034,241)"/>
<path d="M0 0 C1.0625 1.875 1.0625 1.875 2 4 C1.67 4.66 1.34 5.32 1 6 C-6.26 5.34 -13.52 4.68 -21 4 C-21 3.67 -21 3.34 -21 3 C-11.1 2.505 -11.1 2.505 -1 2 C-0.67 1.34 -0.34 0.68 0 0 Z " fill="#97948D" transform="translate(768,481)"/>
<path d="M0 0 C2.97 0 5.94 0 9 0 C9.33 1.32 9.66 2.64 10 4 C7.8125 4.8125 7.8125 4.8125 5 5 C2.1875 2.5625 2.1875 2.5625 0 0 Z " fill="#BAB7B1" transform="translate(891,295)"/>
<path d="M0 0 C3.7952131 1.49097658 5.61042731 3.75700849 8 7 C6.02 7.33 4.04 7.66 2 8 C-0.32039314 4.51941029 0 4.01857088 0 0 Z " fill="#B7B3AE" transform="translate(726,321)"/>
<path d="M0 0 C2.31 0 4.62 0 7 0 C6.67 0.99 6.34 1.98 6 3 C6.99 3.33 7.98 3.66 9 4 C6.08517222 4.80967438 4.53886783 5.21845993 1.6875 4.0625 C1.130625 3.711875 0.57375 3.36125 0 3 C0 2.01 0 1.02 0 0 Z " fill="#BAB7B1" transform="translate(830,296)"/>
</svg>
