<?xml version="1.0" encoding="UTF-8"?>
<svg viewBox="433.66 378.88 155.65 766.46" version="1.1" xmlns="http://www.w3.org/2000/svg" width="156" height="766">

<path d="M0 0 C50.49 0 100.98 0 153 0 C153 252.12 153 504.24 153 764 C102.51 764 52.02 764 0 764 C0 511.88 0 259.76 0 0 Z " fill="#DBD7D1" transform="translate(435,380)"/>
<path d="M0 0 C50.49 0 100.98 0 153 0 C153 252.12 153 504.24 153 764 C102.51 764 52.02 764 0 764 C0 511.88 0 259.76 0 0 Z M23 22 C23 261.25 23 500.5 23 747 C57.98 747 92.96 747 129 747 C129 507.75 129 268.5 129 22 C94.02 22 59.04 22 23 22 Z " fill="#BA7C3F" transform="translate(435,380)"/>
<path d="M0 0 C34.32 0 68.64 0 104 0 C104.08060607 39.22828664 104.08060607 39.22828664 104.09765625 55.73828125 C104.10949734 67.11248591 104.1233747 78.48666082 104.15087891 89.86083984 C104.17090544 98.14667488 104.18373827 106.43248564 104.18817699 114.71834421 C104.19076879 119.09964919 104.1967968 123.48088477 104.21146011 127.86216736 C104.22519095 131.99895288 104.22919187 136.13564144 104.22621536 140.27244759 C104.22675868 141.77831108 104.23064273 143.28417834 104.23841095 144.7900219 C104.27850415 152.9740858 103.8514975 160.91530139 102.71925896 169.02222311 C101.73490825 176.37257376 101.74149601 183.70290032 101.78881836 191.10498047 C101.7910272 192.64102071 101.79232665 194.17706249 101.7928009 195.71310425 C101.79570201 198.98248524 101.80483506 202.2517634 101.81910515 205.52111435 C101.84160032 210.68970321 101.84949728 215.8582555 101.85560608 221.02688599 C101.86692017 229.19092172 101.88760817 237.35490113 101.91250378 245.51890576 C101.9571071 260.17704926 101.9900049 274.83521393 102.01274782 289.49340737 C102.02115779 294.63439218 102.03518143 299.77532258 102.05372036 304.91628051 C102.06433308 308.10013423 102.07093528 311.28398743 102.07652092 314.46785355 C102.08000124 315.94735988 102.0852259 317.42686325 102.09228897 318.90635681 C102.1016906 320.91915296 102.10443544 322.93197698 102.10679626 324.9447937 C102.11031569 326.07256666 102.11383512 327.20033962 102.1174612 328.36228752 C102 331 102 331 101 333 C68.33 333 35.66 333 2 333 C0.85031919 280.11468294 0.85031919 280.11468294 0.79467773 255.43212891 C0.78551632 252.59779048 0.77506389 249.7634571 0.76467896 246.92912292 C0.74340754 240.94781734 0.72509638 234.9665094 0.70907402 228.98518753 C0.68590652 220.33826166 0.65784177 211.69135652 0.62875474 203.04444878 C0.58163534 188.99969396 0.53822915 174.95493041 0.49731445 160.91015625 C0.45767025 147.30435514 0.41617993 133.69856162 0.37231445 120.09277344 C0.36959018 119.24759099 0.36686591 118.40240854 0.36405908 117.5316145 C0.3503749 113.28963514 0.33665556 109.04765589 0.32291877 104.8056767 C0.2098333 69.87046637 0.10355178 34.93524015 0 0 Z " fill="#DBD8D2" transform="translate(460,402)"/>
<path d="M0 0 C50.49 0 100.98 0 153 0 C153 252.12 153 504.24 153 764 C102.51 764 52.02 764 0 764 C0 511.88 0 259.76 0 0 Z M5 4 C5.66 5.32 6.32 6.64 7 8 C6.01 7.34 5.02 6.68 4 6 C4 232.71 4 459.42 4 693 C9.28 693 14.56 693 20 693 C20 470.25 20 247.5 20 18 C75.935 18.495 75.935 18.495 133 19 C133 241.42 133 463.84 133 693 C138.61 693 144.22 693 150 693 C150.01710942 627.42231813 150.03303119 561.84463601 150.04234314 496.26695251 C150.0424812 495.29719114 150.04261925 494.32742977 150.04276149 493.32828169 C150.04575404 472.25540894 150.04852427 451.18253618 150.05106533 430.10966337 C150.05231272 419.77631529 150.05360927 409.44296721 150.05493164 399.10961914 C150.05512778 397.56713762 150.05512778 397.56713762 150.05532788 395.99349486 C150.05959321 362.63123884 150.06710748 329.26898451 150.07629722 295.90672952 C150.08571966 261.63764576 150.09188308 227.36856295 150.09391499 193.09947792 C150.09420317 188.26501793 150.0945288 183.43055794 150.09487724 178.59609795 C150.09494467 177.64455784 150.09501209 176.69301773 150.09508156 175.71264307 C150.09626568 160.36315389 150.10091021 145.01366758 150.10683203 129.66417957 C150.11270467 114.25234746 150.11497166 98.84051821 150.11350138 83.42868502 C150.11273778 74.25958461 150.11479537 65.09049466 150.12079754 55.92139613 C150.12452773 49.80825565 150.12467766 43.69512208 150.12183181 37.58198113 C150.12031178 34.09124768 150.12042837 30.60053411 150.12488318 27.10980273 C150.12884226 23.36245011 150.12676646 19.61515044 150.12304783 15.86779881 C150.12567484 14.76663616 150.12830186 13.66547351 150.13100848 12.53094229 C150.12876118 11.54250396 150.12651389 10.55406564 150.1241985 9.53567463 C150.12435448 8.67731326 150.12451046 7.81895188 150.12467116 6.93457955 C150.21330727 4.99325097 150.21330727 4.99325097 149 4 C147.13971966 3.90349563 145.27572971 3.87812708 143.41294861 3.87974548 C141.59342934 3.87768349 141.59342934 3.87768349 139.7371521 3.87557983 C138.38067603 3.87911944 137.0242002 3.88275425 135.66772461 3.88647461 C134.24887596 3.88675648 132.83002716 3.88659876 131.41117859 3.8860321 C127.54771199 3.88574411 123.68427617 3.8916411 119.82081676 3.89860606 C115.78757427 3.90483933 111.75433115 3.90544338 107.72108459 3.90663147 C100.07834532 3.90974486 92.43562027 3.91795836 84.79288727 3.92798096 C76.09411981 3.93914184 67.39535169 3.94465248 58.69657886 3.94967639 C40.79771116 3.96014097 22.89885672 3.97774057 5 4 Z M23 22 C23 261.25 23 500.5 23 747 C57.98 747 92.96 747 129 747 C129 507.75 129 268.5 129 22 C94.02 22 59.04 22 23 22 Z " fill="#65472B" transform="translate(435,380)"/>
<path d="M0 0 C47.52 0 95.04 0 144 0 C141.525 2.475 141.525 2.475 139 5 C137.98602929 6.09159204 137.98602929 6.09159204 136.95157433 7.20523643 C132.02282768 12.1602341 128.54481838 13.91889365 121.55203247 14.01757812 C120.50441742 13.99195801 119.45680237 13.96633789 118.37744141 13.93994141 C116.68557709 13.9465126 116.68557709 13.9465126 114.95953369 13.95321655 C111.25565725 13.95781565 107.55501112 13.90548034 103.8515625 13.8515625 C101.27087411 13.84170964 98.6901714 13.83511517 96.10946655 13.83163452 C90.71424394 13.81638483 85.3201498 13.77643729 79.92529297 13.71337891 C73.00135291 13.63255397 66.078005 13.59796001 59.15365028 13.57876015 C52.55286346 13.56038847 45.9522346 13.51906744 39.3515625 13.4765625 C37.45732985 13.46637526 37.45732985 13.46637526 35.52482986 13.45598221 C31.96507674 13.43289575 28.40576714 13.39587032 24.84619141 13.35400391 C23.78643097 13.3486261 22.72667053 13.34324829 21.63479614 13.33770752 C20.18405701 13.31624161 20.18405701 13.31624161 18.70401001 13.29434204 C17.4425563 13.2815216 17.4425563 13.2815216 16.15561867 13.26844215 C14 13 14 13 11 11 C11.48731522 11.39818 11.97463044 11.79635999 12.47671278 12.20660605 C14.4347127 14.51179523 14.37426411 15.69690028 14.37259549 18.69430321 C14.38270831 20.15360082 14.38270831 20.15360082 14.39302543 21.64237919 C14.38514439 22.71582698 14.37726335 23.78927477 14.36914349 24.89525127 C14.37260502 26.03667667 14.37606655 27.17810207 14.37963298 28.35411611 C14.38623617 31.54147842 14.37928779 34.72848972 14.36679858 37.91582419 C14.35652464 41.37606549 14.36360287 44.83627689 14.36853105 48.29652387 C14.37476323 54.36726336 14.36980236 60.43791482 14.35761642 66.5086441 C14.33954648 75.53564563 14.33860573 84.56259139 14.34124239 93.5896077 C14.34518868 108.77283602 14.33514251 123.95602524 14.31719017 139.13924217 C14.29945419 154.17793152 14.28789539 169.2166046 14.28463173 184.25530434 C14.28442551 185.18949585 14.28421929 186.12368736 14.28400682 187.0861877 C14.28299186 191.83025108 14.28208769 196.57431448 14.2812262 201.31837789 C14.27492079 234.94232487 14.25469709 268.56625056 14.22631836 302.19018555 C14.19877632 334.86043179 14.17751997 367.53067221 14.16479492 400.20092773 C14.16440034 401.20752684 14.16400576 402.21412595 14.16359923 403.25122806 C14.15964375 413.3596807 14.1558163 423.46813339 14.15208265 433.57658612 C14.1444735 454.16965412 14.13600975 474.76272174 14.12702942 495.35578918 C14.12661755 496.30267685 14.12620568 497.24956451 14.12578133 498.22514574 C14.09816774 561.48343939 14.05056851 624.74172106 14 688 C9.38 688 4.76 688 0 688 C-0.73158509 684.34207453 -1.12486433 681.63653423 -1.1241985 678.01241559 C-1.12644579 677.02502201 -1.12869308 676.03762843 -1.13100848 675.02031383 C-1.12838146 673.94088965 -1.12575445 672.86146547 -1.12304783 671.74933147 C-1.12420167 670.59377977 -1.12535552 669.43822807 -1.12654433 668.24765965 C-1.12874044 665.03011544 -1.12643613 661.8126101 -1.12226619 658.59506898 C-1.11883457 655.09851875 -1.1212023 651.60197175 -1.12284368 648.10542089 C-1.12491888 641.97404934 -1.12327116 635.84268749 -1.11920547 629.71131706 C-1.1131767 620.59415759 -1.11286909 611.47700424 -1.11374746 602.35984313 C-1.11506222 587.02420232 -1.11171671 571.68856581 -1.10573006 556.35292625 C-1.09981631 541.165173 -1.09596477 525.97742153 -1.09487724 510.78966713 C-1.0948085 509.84590867 -1.09473976 508.90215021 -1.09466894 507.92979301 C-1.09433062 503.13706722 -1.09402923 498.34434143 -1.09374207 493.55161563 C-1.09164075 459.59048016 -1.08490087 425.62934704 -1.07543945 391.66821289 C-1.06625749 358.67211927 -1.05917266 325.67602629 -1.05493164 292.67993164 C-1.05480011 291.6631372 -1.05466859 290.64634275 -1.05453308 289.59873635 C-1.05321457 279.38781911 -1.05193876 269.17690186 -1.05069422 258.96598461 C-1.04815789 238.16452295 -1.04533664 217.36306133 -1.04234314 196.56159973 C-1.04220585 195.60514822 -1.04206856 194.64869672 -1.04192711 193.66326183 C-1.03272393 129.77550691 -1.01687844 65.8877533 -1 2 C-0.01 2.33 0.98 2.66 2 3 C1.34 2.01 0.68 1.02 0 0 Z " fill="#C28244" transform="translate(440,384)"/>
<path d="M0 0 C0.66 0 1.32 0 2 0 C3.30466028 2.60932056 3.12414938 4.50753432 3.12304783 7.4310627 C3.12503888 8.59153213 3.12702993 9.75200155 3.12908131 10.94763672 C3.12616847 12.23360587 3.12325563 13.51957503 3.12025452 14.84451294 C3.12069023 16.21567297 3.12156515 17.58683293 3.12284368 18.95799243 C3.12508854 22.7388068 3.12106748 26.51959305 3.11606562 30.30040383 C3.11176118 34.37266304 3.11320754 38.44492056 3.1139679 42.5171814 C3.11449313 49.57696028 3.11134634 56.63672994 3.10573006 63.6965065 C3.09761505 73.90385287 3.09499984 84.11119477 3.09374207 94.31854402 C3.09155155 110.87789255 3.08489147 127.43723617 3.07543945 143.99658203 C3.06626533 160.08577449 3.0591845 176.17496561 3.05493164 192.26416016 C3.05466892 193.25531724 3.05440619 194.24647433 3.05413551 195.26766647 C3.0528305 200.23983685 3.05156679 205.21200724 3.05032361 210.18417764 C3.039951 251.45612279 3.0215127 292.72805885 3 334 C36.33 334 69.66 334 104 334 C104 334.66 104 335.32 104 336 C70.67 336 37.34 336 3 336 C3 446.22 3 556.44 3 670 C36 670 69 670 103 670 C103 670.66 103 671.32 103 672 C103.99 672 104.98 672 106 672 C106 689.49 106 706.98 106 725 C71.02 725 36.04 725 0 725 C0 485.75 0 246.5 0 0 Z " fill="#A6A29F" transform="translate(458,402)"/>
<path d="M0 0 C50.49 0 100.98 0 153 0 C153 252.12 153 504.24 153 764 C102.51 764 52.02 764 0 764 C0 511.88 0 259.76 0 0 Z M1 1 C1 252.46 1 503.92 1 763 C50.83 763 100.66 763 152 763 C152 514.84 152 266.68 152 11 C151.67 11 151.34 11 151 11 C151 236.39 151 461.78 151 694 C144.73 694 138.46 694 132 694 C133 693 133 693 136.81640625 692.90234375 C138.39846682 692.90901911 139.98051159 692.92098125 141.5625 692.9375 C142.36880859 692.94201172 143.17511719 692.94652344 144.00585938 692.95117188 C146.00393756 692.96299482 148.00197783 692.98093086 150 693 C150.01713048 627.42231814 150.03303119 561.84463601 150.04234314 496.26695251 C150.0424812 495.29719114 150.04261925 494.32742977 150.04276149 493.32828169 C150.04575404 472.25540894 150.04852427 451.18253618 150.05106533 430.10966337 C150.05231272 419.77631529 150.05360927 409.44296721 150.05493164 399.10961914 C150.05512778 397.56713762 150.05512778 397.56713762 150.05532788 395.99349486 C150.05959321 362.63123884 150.06710748 329.26898451 150.07629722 295.90672952 C150.08571966 261.63764576 150.09188308 227.36856295 150.09391499 193.09947792 C150.09420317 188.26501793 150.0945288 183.43055794 150.09487724 178.59609795 C150.09494467 177.64455784 150.09501209 176.69301773 150.09508156 175.71264307 C150.09626568 160.36315389 150.10091021 145.01366758 150.10683203 129.66417957 C150.11270467 114.25234746 150.11497166 98.84051821 150.11350138 83.42868502 C150.11273778 74.25958461 150.11479537 65.09049466 150.12079754 55.92139613 C150.12452773 49.80825565 150.12467766 43.69512208 150.12183181 37.58198113 C150.12031178 34.09124768 150.12042837 30.60053411 150.12488318 27.10980273 C150.12884226 23.36245011 150.12676646 19.61515044 150.12304783 15.86779881 C150.12567484 14.76663616 150.12830186 13.66547351 150.13100848 12.53094229 C150.12876118 11.54250396 150.12651389 10.55406564 150.1241985 9.53567463 C150.12435448 8.67731326 150.12451046 7.81895188 150.12467116 6.93457955 C150.21330727 4.99325097 150.21330727 4.99325097 149 4 C147.13971966 3.90349563 145.27572971 3.87812708 143.41294861 3.87974548 C141.59342934 3.87768349 141.59342934 3.87768349 139.7371521 3.87557983 C138.38067603 3.87911944 137.0242002 3.88275425 135.66772461 3.88647461 C134.24887596 3.88675648 132.83002716 3.88659876 131.41117859 3.8860321 C127.54771199 3.88574411 123.68427617 3.8916411 119.82081676 3.89860606 C115.78757427 3.90483933 111.75433115 3.90544338 107.72108459 3.90663147 C100.07834532 3.90974486 92.43562027 3.91795836 84.79288727 3.92798096 C76.09411981 3.93914184 67.39535169 3.94465248 58.69657886 3.94967639 C40.79771116 3.96014097 22.89885672 3.97774057 5 4 C5.66 5.32 6.32 6.64 7 8 C4 6 4 6 3.3125 3.875 C3.209375 3.25625 3.10625 2.6375 3 2 C3.99 1.67 4.98 1.34 6 1 C4.35 1 2.7 1 1 1 Z " fill="#775F48" transform="translate(435,380)"/>
<path d="M0 0 C1.65 0 3.3 0 5 0 C4.01 0.33 3.02 0.66 2 1 C2.00086812 1.58942344 2.00173625 2.17884688 2.00263068 2.78613164 C2.09738475 67.12289816 2.19201372 131.45966486 2.28601074 195.7964325 C2.28742048 196.76131131 2.28883022 197.72619013 2.29028267 198.7203077 C2.32093786 219.70239567 2.35157125 240.68448366 2.38218227 261.6665717 C2.3971995 271.95992476 2.41222153 282.25327781 2.42724609 292.54663086 C2.42874094 293.5708063 2.43023578 294.59498175 2.43177592 295.65019281 C2.48001133 328.69662825 2.5285623 361.74306322 2.57728135 394.78949796 C2.62745013 428.82044514 2.6772917 462.85139279 2.7267361 496.88234103 C2.73376023 501.71671336 2.740788 506.55108568 2.74781799 511.38545799 C2.74920114 512.33669763 2.75058429 513.28793727 2.75200936 514.26800236 C2.77405904 529.42592804 2.79644189 544.58385322 2.81895734 559.74177822 C2.84172444 575.07409611 2.86412153 590.40641451 2.88616979 605.73873345 C2.89919233 614.78730671 2.91246949 623.83587951 2.92616192 632.88445178 C2.93538976 639.00149332 2.94423385 645.11853535 2.95281955 651.23557782 C2.9576556 654.67439993 2.9626669 658.11322144 2.96804518 661.55204276 C3.01861357 694.0347028 3 726.51726076 3 759 C49.53 759 96.06 759 144 759 C142.68 757.68 141.36 756.36 140 755 C144.75 756.875 144.75 756.875 147 758 C147.02505615 756.92218262 147.0501123 755.84436523 147.07592773 754.73388672 C147.17136403 750.66707002 147.27122991 746.6003713 147.37231445 742.53369141 C147.41515624 740.78632399 147.45685717 739.03892816 147.49731445 737.29150391 C147.74035313 726.8318392 148.12210823 716.42913884 149 706 C149.66 706 150.32 706 151 706 C151 724.48 151 742.96 151 762 C101.17 762 51.34 762 0 762 C0 510.54 0 259.08 0 0 Z " fill="#47372A" transform="translate(436,381)"/>
<path d="M0 0 C35.64 0 71.28 0 108 0 C108 240.24 108 480.48 108 728 C109.32 728.33 110.64 728.66 112 729 C98.15256095 729.02338164 84.30512497 729.04093851 70.45767021 729.05181217 C64.02776276 729.05703094 57.59786857 729.0641104 51.16796875 729.07543945 C44.96289057 729.08630398 38.75782515 729.09228442 32.55273819 729.09487724 C30.18527145 729.09672505 27.8178054 729.10033331 25.45034409 729.10573006 C22.13468669 729.11298773 18.81908203 729.11398893 15.50341797 729.11352539 C14.5244606 729.11712067 13.54550323 729.12071594 12.53688049 729.12442017 C11.62831802 729.1230455 10.71975555 729.12167084 9.78366089 729.12025452 C8.60837483 729.12163721 8.60837483 729.12163721 7.40934563 729.12304783 C4.58502504 728.97880679 1.78952346 728.46492058 -1 728 C-0.67 487.76 -0.34 247.52 0 0 Z M1 1 C1 240.25 1 479.5 1 726 C35.98 726 70.96 726 107 726 C107 486.75 107 247.5 107 1 C72.02 1 37.04 1 1 1 Z " fill="#63584D" transform="translate(457,401)"/>
<path d="M0 0 C47.52 0 95.04 0 144 0 C141.525 2.475 141.525 2.475 139 5 C138.32199435 5.72588696 137.6439887 6.45177391 136.94543743 7.19965744 C132.06346161 12.08579342 128.58838405 13.92628069 121.67422485 14.12866211 C120.12872452 14.11379761 120.12872452 14.11379761 118.55200195 14.09863281 C117.44176163 14.11907654 116.3315213 14.13952026 115.18763733 14.1605835 C111.53696105 14.21593785 107.88932594 14.21235981 104.23828125 14.203125 C101.68392327 14.21868931 99.12957557 14.23603138 96.57524109 14.25506592 C91.22628963 14.28486733 85.87843995 14.2843476 80.52954102 14.26269531 C74.38033209 14.23858238 68.23479495 14.28766971 62.08621246 14.37297559 C56.1342717 14.45246247 50.18344827 14.46407315 44.23094749 14.4500351 C41.7164976 14.4520769 39.20198563 14.47282066 36.68786049 14.51328278 C14.02179501 14.83324433 14.02179501 14.83324433 5.34838867 6.97167969 C3.39584118 5.0522605 1.71457382 3.14702181 0 1 C0 0.67 0 0.34 0 0 Z " fill="#D89B55" transform="translate(440,384)"/>
<path d="M0 0 C0 240.9 0 481.8 0 730 C-0.99 730 -1.98 730 -3 730 C-3 489.76 -3 249.52 -3 2 C-37.98 2 -72.96 2 -109 2 C-109 1.67 -109 1.34 -109 1 C-95.52644017 0.86933304 -82.05287787 0.73892506 -68.57931232 0.60884857 C-62.32313731 0.54844205 -56.06696319 0.48794601 -49.81079102 0.42724609 C-43.77430101 0.3686809 -37.73780878 0.31034994 -31.70131493 0.25218201 C-29.39721788 0.22993833 -27.09312165 0.20760998 -24.78902626 0.18519592 C-21.56418694 0.15383935 -18.33934486 0.12278268 -15.11450195 0.09179688 C-14.16000153 0.08244614 -13.2055011 0.0730954 -12.22207642 0.0634613 C-10.8991584 0.05084007 -10.8991584 0.05084007 -9.54951477 0.03796387 C-8.78719197 0.03058952 -8.02486917 0.02321518 -7.23944569 0.01561737 C-4.82635019 -0.00121099 -2.41315418 0 0 0 Z " fill="#4E3C31" transform="translate(568,399)"/>
<path d="M0 0 C2 2 2 2 2.24839699 4.37719071 C2.24763755 5.38496847 2.24687811 6.39274622 2.24609566 7.4310627 C2.25007775 8.59153213 2.25405985 9.75200155 2.25816262 10.94763672 C2.25233693 12.23360587 2.24651125 13.51957503 2.24050903 14.84451294 C2.24138047 16.21567358 2.2431303 17.5868339 2.24568737 18.95799243 C2.25017711 22.73883851 2.24213502 26.5195721 2.23213124 30.30040383 C2.22352236 34.37266309 2.22641508 38.44491561 2.22793579 42.5171814 C2.22898627 49.57697181 2.22269269 56.63672536 2.21146011 63.6965065 C2.1952301 73.90385447 2.18999967 84.11118454 2.18748413 94.31854402 C2.18310309 110.87790014 2.16978293 127.43723659 2.15087891 143.99658203 C2.13253067 160.08577374 2.118369 176.17496011 2.10986328 192.26416016 C2.10933783 193.25531724 2.10881239 194.24647433 2.10827102 195.26766647 C2.10566101 200.23983683 2.10313358 205.21200722 2.10064721 210.18417764 C2.07990199 251.45613589 2.04302539 292.72805778 2 334 C35.33 334 68.66 334 103 334 C103 334.66 103 335.32 103 336 C69.67 336 36.34 336 2 336 C2 446.22 2 556.44 2 670 C-0.1316623 666.80250655 -0.24977189 666.01675229 -0.24839699 662.35058099 C-0.25289158 661.38774984 -0.25738617 660.42491868 -0.26201695 659.43291083 C-0.25676292 658.37069346 -0.2515089 657.30847609 -0.24609566 656.21407032 C-0.24840335 655.08446354 -0.25071103 653.95485676 -0.25308865 652.79101947 C-0.25842623 648.9664009 -0.24937343 645.14194722 -0.24050903 641.31733704 C-0.24026786 638.5635039 -0.24304524 635.80967569 -0.24568737 633.05584401 C-0.24984207 627.04820923 -0.24653501 621.04061398 -0.23841095 615.03298378 C-0.22636415 606.09979856 -0.22573717 597.16663839 -0.22749493 588.23344654 C-0.23012576 573.2079999 -0.22342842 558.18257082 -0.21146011 543.15712929 C-0.19963607 528.27474188 -0.19193025 513.39236178 -0.18975449 498.50996971 C-0.18961701 497.58548263 -0.18947953 496.66099554 -0.18933788 495.7084937 C-0.18866124 491.01371063 -0.18805846 486.31892755 -0.18748413 481.62414446 C-0.18328054 448.34960369 -0.16979812 415.07507249 -0.15087891 381.80053711 C-0.1325175 349.46980846 -0.11834662 317.13908243 -0.10986328 284.80834961 C-0.10960023 283.81220889 -0.10933718 282.81606818 -0.10906615 281.78974138 C-0.10642917 271.78631251 -0.10387753 261.78288362 -0.10138843 251.77945471 C-0.09631567 231.40034821 -0.09067317 211.02124188 -0.08468628 190.64213562 C-0.0844117 189.70508638 -0.08413712 188.76803714 -0.08385422 187.80259246 C-0.06544521 125.20172433 -0.03375391 62.60086151 0 0 Z " fill="#ACA6A0" transform="translate(459,402)"/>
<path d="M0 0 C1.65489189 -0.02278015 1.65489189 -0.02278015 3.34321594 -0.04602051 C6.98677164 -0.08837842 10.62916269 -0.0933166 14.27294922 -0.09423828 C16.81395952 -0.10777115 19.3549652 -0.12219889 21.89596558 -0.13748169 C27.22391265 -0.16290372 32.55143034 -0.16844342 37.87939453 -0.16113281 C44.01144298 -0.15330958 50.14160972 -0.19714342 56.27323544 -0.26593387 C62.19782742 -0.32997683 68.12185015 -0.34343732 74.04681015 -0.33813858 C76.55451801 -0.34217598 79.06224752 -0.36056892 81.56973648 -0.3939476 C105.23228947 -0.67658516 105.23228947 -0.67658516 114.24581909 7.68112183 C115.95263672 9.71044922 115.95263672 9.71044922 115.95263672 10.71044922 C70.41263672 10.71044922 24.87263672 10.71044922 -22.04736328 10.71044922 C-20.39736328 9.06044922 -18.74736328 7.41044922 -17.04736328 5.71044922 C-16.18209015 4.79697723 -15.31681702 3.88350525 -14.42532349 2.94235229 C-10.16722266 -0.50736894 -5.2489721 -0.01946078 0 0 Z " fill="#795331" transform="translate(465.04736328125,1130.28955078125)"/>
<path d="M0 0 C0.33 0 0.66 0 1 0 C1.00071214 0.57857121 1.00142429 1.15714242 1.00215801 1.75324609 C1.07969228 64.71621308 1.15845377 127.67917849 1.2436676 190.64213562 C1.24493928 191.58201639 1.24621096 192.52189716 1.24752118 193.49025916 C1.27516278 213.91429918 1.30302576 234.33833889 1.33111694 254.76237829 C1.34489065 264.77770201 1.35861541 274.79302579 1.37231445 284.80834961 C1.37367854 285.80501741 1.37504262 286.80168521 1.37644804 287.82855506 C1.42067299 320.15828947 1.46166343 352.48802701 1.50098413 384.81776773 C1.54139387 418.02892833 1.58505157 451.24008311 1.63282111 484.45123399 C1.63956009 489.13747918 1.64626177 493.82372443 1.65294075 498.50996971 C1.65425648 499.43232881 1.65557221 500.35468791 1.6569278 501.30499729 C1.67804782 516.17801288 1.69572373 531.05103069 1.71212531 545.92405214 C1.72867034 560.86095636 1.74881134 575.79785225 1.77266841 590.73474661 C1.7867478 599.61903333 1.79802465 608.50331354 1.80536438 617.38760845 C1.81053099 623.31346111 1.81927347 629.23930136 1.83098774 635.16514468 C1.83756928 638.54726554 1.84199313 641.92935266 1.84316199 645.31148223 C1.84465923 648.94570337 1.85219072 652.57986161 1.8613348 656.21407032 C1.86031213 657.27628769 1.85928946 658.33850506 1.85823581 659.43291083 C1.86191652 660.39574198 1.86559723 661.35857314 1.86938947 662.35058099 C1.87048134 663.18242566 1.8715732 664.01427033 1.87269815 664.87132241 C1.91907127 667.18893152 1.91907127 667.18893152 3 670 C3.11591448 671.79403055 3.17652871 673.59186356 3.20532227 675.3894043 C3.22526749 676.49031906 3.24521271 677.59123383 3.26576233 678.72550964 C3.28247482 679.91308365 3.29918732 681.10065765 3.31640625 682.32421875 C3.33718735 683.54075638 3.35796844 684.75729401 3.37937927 686.01069641 C3.44484717 689.90290596 3.50374715 693.79518385 3.5625 697.6875 C3.60568782 700.32357482 3.6493022 702.95964269 3.69335938 705.59570312 C3.80052578 712.06372951 3.90229745 718.53182411 4 725 C2.68 725 1.36 725 0 725 C0 485.75 0 246.5 0 0 Z " fill="#979289" transform="translate(458,402)"/>
<path d="M0 0 C0.33 0 0.66 0 1 0 C1 58.74 1 117.48 1 178 C-32.99 178 -66.98 178 -102 178 C-102 177.67 -102 177.34 -102 177 C-68.67 177 -35.34 177 -1 177 C-1 176.34 -1 175.68 -1 175 C-34.33 175 -67.66 175 -102 175 C-102 159.49 -102 143.98 -102 128 C-101.67 128 -101.34 128 -101 128 C-101 143.18 -101 158.36 -101 174 C-68.33 174 -35.66 174 -2 174 C-2.02320313 162.78 -2.04640625 151.56 -2.0703125 140 C-2.08053709 132.8723949 -2.09024846 125.74479516 -2.09765625 118.6171875 C-2.10949703 107.3154111 -2.1233735 96.01366465 -2.15087891 84.71191406 C-2.17090637 76.47881674 -2.18373849 68.24574384 -2.18817699 60.01262283 C-2.19076863 55.65926333 -2.19679563 51.30597368 -2.21146011 46.95263672 C-2.22519243 42.84211586 -2.22919158 38.73169259 -2.22621536 34.62115097 C-2.22675862 33.12496279 -2.23064176 31.6287708 -2.23841095 30.13260269 C-2.28873878 19.92652752 -1.48105722 10.09021738 0 0 Z " fill="#D3D0CB" transform="translate(563,561)"/>
<path d="M0 0 C3 3 3 3 3.36914349 5.50872326 C3.36637811 6.51624299 3.36361273 7.52376272 3.36076355 8.56181335 C3.36488754 9.71867645 3.36901154 10.87553955 3.3732605 12.06745911 C3.36247467 13.33772446 3.35168884 14.60798981 3.34057617 15.91674805 C3.33973002 17.26692689 3.34020481 18.61710712 3.34190369 19.96728516 C3.34276553 23.63446653 3.32510941 27.3013544 3.30418181 30.96846747 C3.28544642 34.80015566 3.28366706 38.63185035 3.28010559 42.46357727 C3.27077587 49.72027406 3.24614963 56.9768355 3.21605712 64.23347265 C3.18254188 72.49455094 3.16603435 80.75563566 3.15097082 89.016765 C3.11960082 106.011255 3.0668224 123.00561319 3 140 C2.01 140 1.02 140 0 140 C0 139.34 0 138.68 0 138 C-33 138 -66 138 -100 138 C-100 95.76 -100 53.52 -100 10 C-99.67 10 -99.34 10 -99 10 C-98.15459178 26.3128833 -97.91270466 42.54394105 -98.12109375 58.875 C-98.1454894 61.14997793 -98.16932759 63.4249619 -98.19264221 65.69995117 C-98.25454632 71.59831796 -98.32386193 77.49657349 -98.39489746 83.39483643 C-98.47909232 90.51967529 -98.55377028 97.64461992 -98.63010406 104.76954651 C-98.74624194 115.5131276 -98.87422065 126.25650804 -99 137 C-66.33 137 -33.66 137 0 137 C0 91.79 0 46.58 0 0 Z " fill="#D0CDC8" transform="translate(561,934)"/>
<path d="M0 0 C0.33 0 0.66 0 1 0 C1.00423194 0.87336911 1.00846388 1.74673822 1.01282406 2.64657307 C1.11603828 23.87784828 1.22466212 45.10908977 1.33933926 66.34030628 C1.39466473 76.60747444 1.44814564 86.87464607 1.49731445 97.1418457 C1.54016455 106.08862949 1.58644465 115.03538776 1.63687855 123.98213214 C1.66347281 128.72124759 1.68832575 133.460358 1.70907402 138.19950294 C1.72864411 142.65717644 1.75278906 147.11480141 1.78049088 151.57243156 C1.78985933 153.21113326 1.79753535 154.84984562 1.80341911 156.48856354 C1.81168378 158.72088882 1.82596147 160.9530964 1.84178162 163.18537903 C1.84823417 164.43625211 1.85468672 165.68712519 1.8613348 166.97590351 C1.86459017 170.04783904 1.86459017 170.04783904 3 173 C3.11591448 174.79403055 3.17652871 176.59186356 3.20532227 178.3894043 C3.2352401 180.04077644 3.2352401 180.04077644 3.26576233 181.72550964 C3.28247482 182.91308365 3.29918732 184.10065765 3.31640625 185.32421875 C3.33718735 186.54075638 3.35796844 187.75729401 3.37937927 189.01069641 C3.44484717 192.90290596 3.50374715 196.79518385 3.5625 200.6875 C3.60568782 203.32357482 3.6493022 205.95964269 3.69335938 208.59570312 C3.80052578 215.06372951 3.90229745 221.53182411 4 228 C2.68 228 1.36 228 0 228 C0 152.76 0 77.52 0 0 Z " fill="#8B867E" transform="translate(458,899)"/>
<path d="M0 0 C0.33 0 0.66 0 1 0 C1.02464705 5.67830078 1.04283462 11.35657069 1.05493164 17.03491211 C1.05997256 18.96818585 1.06680519 20.90145576 1.07543945 22.8347168 C1.08751565 25.60726872 1.09323057 28.37977041 1.09765625 31.15234375 C1.10281754 32.02213364 1.10797882 32.89192352 1.11329651 33.78807068 C1.11349185 35.85905814 1.06208168 37.92994324 1 40 C0 41 0 41 -2.3719492 41.12304783 C-3.96342478 41.12166514 -3.96342478 41.12166514 -5.58705139 41.12025452 C-6.80006424 41.12162918 -8.01307709 41.12300385 -9.2628479 41.12442017 C-10.61932397 41.12088056 -11.9757998 41.11724575 -13.33227539 41.11352539 C-14.75112404 41.11324352 -16.16997284 41.11340124 -17.58882141 41.1139679 C-21.45228801 41.11425589 -25.31572383 41.1083589 -29.17918324 41.10139394 C-33.21242573 41.09516067 -37.24566885 41.09455662 -41.27891541 41.09336853 C-48.92165468 41.09025514 -56.56437973 41.08204164 -64.20711273 41.07201904 C-72.90588019 41.06085816 -81.60464831 41.05534752 -90.30342114 41.05032361 C-108.20228884 41.03985903 -126.10114328 41.02225943 -144 41 C-144.33 40.34 -144.66 39.68 -145 39 C-98.47 39 -51.94 39 -4 39 C-5.98 37.02 -5.98 37.02 -8 35 C-3.25 36.875 -3.25 36.875 -1 38 C-0.67 25.46 -0.34 12.92 0 0 Z " fill="#513C28" transform="translate(584,1101)"/>
<path d="M0 0 C0.33 0 0.66 0 1 0 C2.0938062 15.89903418 2.1173877 31.75660391 2.0625 47.6875 C2.05747135 50.25065016 2.05291088 52.81380128 2.04882812 55.37695312 C2.03793899 61.58465684 2.02131063 67.79232375 2 74 C1.01 74 0.02 74 -1 74 C-0.67 49.58 -0.34 25.16 0 0 Z " fill="#4A382B" transform="translate(566,1055)"/>
<path d="M0 0 C2.22683196 3.34024793 2.2652219 4.48366144 2.31884766 8.3894043 C2.33871735 9.49031906 2.35858704 10.59123383 2.37905884 11.72550964 C2.39061005 12.91308365 2.40216125 14.10065765 2.4140625 15.32421875 C2.43342865 16.54075638 2.4527948 17.75729401 2.4727478 19.01069641 C2.53261021 22.90289257 2.57895618 26.79511819 2.625 30.6875 C2.66317359 33.32358073 2.70222495 35.95964891 2.7421875 38.59570312 C2.8383173 45.06369078 2.92334539 51.53175382 3 58 C2.01 57.67 1.02 57.34 0 57 C0 38.19 0 19.38 0 0 Z " fill="#98938F" transform="translate(459,1069)"/>
<path d="M0 0 C0.33 0 0.66 0 1 0 C1 8.58 1 17.16 1 26 C0.01 26 -0.98 26 -2 26 C-1.86157705 22.04137069 -1.71300994 18.08318673 -1.5625 14.125 C-1.52318359 12.99707031 -1.48386719 11.86914062 -1.44335938 10.70703125 C-1.40146484 9.63066406 -1.35957031 8.55429688 -1.31640625 7.4453125 C-1.27974854 6.45031738 -1.24309082 5.45532227 -1.20532227 4.43017578 C-1 2 -1 2 0 0 Z " fill="#403025" transform="translate(567,1103)"/>
<path d="M0 0 C0.18451025 10.55808656 0.18451025 10.55808656 -1 15 C-1.33 15 -1.66 15 -2 15 C-2.33 10.71 -2.66 6.42 -3 2 C-5.64 2 -8.28 2 -11 2 C-11 1.67 -11 1.34 -11 1 C-7.26513121 0.4254048 -3.78706732 0 0 0 Z " fill="#63503A" transform="translate(587,381)"/>
<path d="M0 0 C0.33 0 0.66 0 1 0 C1.08089542 2.77141717 1.14044062 5.54047819 1.1875 8.3125 C1.21263672 9.09818359 1.23777344 9.88386719 1.26367188 10.69335938 C1.27333984 11.45068359 1.28300781 12.20800781 1.29296875 12.98828125 C1.3086792 13.68477783 1.32438965 14.38127441 1.34057617 15.09887695 C0.90238443 17.54489783 -0.13437358 18.42702086 -2 20 C-1.47594437 13.30992818 -0.89536075 6.6512513 0 0 Z " fill="#E0DED9" transform="translate(561,708)"/>
<path d="M0 0 C0.66 0.33 1.32 0.66 2 1 C1.34 1.66 0.68 2.32 0 3 C-0.46006346 5.20250992 -0.46006346 5.20250992 -0.625 7.625 C-0.69976563 8.44226563 -0.77453125 9.25953125 -0.8515625 10.1015625 C-0.90054688 10.72804688 -0.94953125 11.35453125 -1 12 C-1.33 12 -1.66 12 -2 12 C-2.66 9.03 -3.32 6.06 -4 3 C-2.68 2.01 -1.36 1.02 0 0 Z " fill="#E0DED9" transform="translate(562,402)"/>
<path d="M0 0 C2 2 2 2 2.125 5.125 C2.08375 6.07375 2.0425 7.0225 2 8 C1.01 7.67 0.02 7.34 -1 7 C-1.04254356 5.00045254 -1.04080783 2.99958364 -1 1 C-0.67 0.67 -0.34 0.34 0 0 Z " fill="#928E8A" transform="translate(460,1119)"/>
</svg>
